<?xml version="1.0" standalone="no"?>
<!DOCTYPE svg PUBLIC "-//W3C//DTD SVG 1.1//EN" "http://www.w3.org/Graphics/SVG/1.1/DTD/svg11.dtd" >
<svg xmlns="http://www.w3.org/2000/svg">
<metadata>Generated by IcoMoon</metadata>
<defs>
<font id="features-sa" horiz-adv-x="1024">
<font-face units-per-em="1024" ascent="960" descent="-64" />
<missing-glyph horiz-adv-x="1024" />
<glyph unicode="&#x20;" horiz-adv-x="512" d="" />
<glyph unicode="&#xe900;" glyph-name="pencil" d="M978.773 843.435l-71.339 71.296c-41.6 41.6-109.269 41.6-150.827 0-175.104-175.061-109.056-109.056-643.669-643.627-2.304-2.304-4.523-6.272-5.333-8.832l-85.333-277.333c-4.992-16.299 10.24-31.659 26.667-26.667 8.235 2.517 269.909 82.944 278.016 85.76 2.944 1.024 5.76 2.56 8.107 4.907 636.117 636.075 472.405 472.363 643.712 643.627 20.096 20.096 31.147 46.848 31.147 75.435 0 28.501-11.093 55.296-31.147 75.435zM832 606.165l-161.835 161.835 33.835 33.835 161.835-161.835-33.835-33.835zM179.2 43.008l-72.192 72.149 30.976 100.693 17.621-17.621c3.968-3.968 9.387-6.229 15.061-6.229h85.333v-85.333c0-5.675 2.261-11.093 6.272-15.104l17.621-17.621-100.693-30.933zM268.501 234.667h-89.003l-21.333 21.333 481.835 481.835 65.835-65.835-437.333-437.333zM92.8 69.035l40.235-40.235-58.112-17.877 17.877 58.112zM320 94.165l-21.333 21.333v89.003l437.333 437.333 65.835-65.835-481.835-481.835zM948.565 722.731l-52.565-52.565-161.835 161.835 52.565 52.565c24.96 24.917 65.536 24.917 90.496 0l71.339-71.296c12.032-12.032 18.688-28.117 18.688-45.269 0-17.195-6.613-33.237-18.688-45.269z" />
<glyph unicode="&#xe901;" glyph-name="pen" d="M964.523 779.904l-120.661 120.619c-8.32 8.32-21.845 8.32-30.165 0l-16.597-16.597c-41.387 27.392-97.835 22.869-134.272-13.568l-241.323-241.323c-8.32-8.32-8.32-21.845 0-30.165s21.845-8.32 30.165 0l241.323 241.323c19.627 19.584 48.683 23.253 72.448 12.032l-615.467-615.381c-1.792-1.792-3.925-5.291-4.608-6.912 0 0-89.685-209.323-90.411-210.987-7.68-17.877 10.581-35.499 27.989-27.989 0.043 0 210.816 90.368 210.859 90.368 1.877 0.811 5.589 3.2 6.997 4.651l663.723 663.765c4.011 4.011 6.229 9.429 6.229 15.061 0.043 5.675-2.219 11.093-6.229 15.104zM587.392 613.931l90.539-90.496-392.235-392.192-90.496 90.496 392.192 392.192zM115.157 51.2l57.045 133.205 76.117-76.117-133.163-57.088zM708.139 553.6l-90.496 90.539 211.157 211.157 90.496-90.453-211.157-211.243z" />
<glyph unicode="&#xe902;" glyph-name="check" d="M710.784 612.907l-304.896-284.587-92.117 92.075c-8.32 8.32-21.845 8.32-30.165 0s-8.32-21.845 0-30.165l106.667-106.667c8.107-8.107 21.205-8.363 29.653-0.512l320 298.667c8.619 8.021 9.045 21.547 1.024 30.165-8.064 8.619-21.547 9.088-30.165 1.024zM512 960c-282.325 0-512-229.675-512-512s229.675-512 512-512 512 229.675 512 512-229.675 512-512 512zM512-21.333c-258.773 0-469.333 210.517-469.333 469.333 0 258.773 210.56 469.333 469.333 469.333s469.333-210.56 469.333-469.333c0-258.816-210.56-469.333-469.333-469.333z" />
<glyph unicode="&#xe903;" glyph-name="share-time" d="M704 319.957c176.469 0 320 143.531 320 320s-143.531 320-320 320-320-143.531-320-320 143.531-320 320-320zM704 917.291c152.917 0 277.333-124.416 277.333-277.333s-124.416-277.333-277.333-277.333-277.333 124.416-277.333 277.333 124.416 277.333 277.333 277.333zM839.467 495.744c8.917-7.637 22.4-6.656 30.080 2.347 7.68 8.917 6.656 22.4-2.304 30.080l-141.909 121.6v118.187c0 11.776-9.557 21.333-21.333 21.333s-21.333-9.557-21.333-21.333v-128c0-6.229 2.731-12.16 7.467-16.213l149.333-128zM597.333 149.333c-2.005 0-75.733-0.512-77.141 0.939-25.771 27.392-79.36 84.395-178.859 84.395h-128v21.333c0 11.776-9.557 21.333-21.333 21.333h-170.667c-11.776 0-21.333-9.557-21.333-21.333v-298.667c0-11.776 9.557-21.333 21.333-21.333h170.667c11.776 0 21.333 9.557 21.333 21.333v21.333h704c11.776 0 21.333 9.557 21.333 21.333 0 87.979-179.883 149.333-341.333 149.333zM170.667-21.333h-128v256h128v-256zM213.333 21.333v170.667h128c54.997 0 92.373-21.248 118.229-42.667h-160.896c-11.776 0-21.333-9.557-21.333-21.333s9.557-21.333 21.333-21.333h298.667c143.36 0 256.896-45.824 289.323-85.333h-673.323z" />
<glyph unicode="&#xe904;" glyph-name="clock" d="M512-64c-282.325 0-512 229.675-512 512s229.675 512 512 512 512-229.675 512-512-229.675-512-512-512zM512 917.333c-258.773 0-469.333-210.56-469.333-469.333 0-258.816 210.56-469.333 469.333-469.333s469.333 210.517 469.333 469.333c0 258.773-210.56 469.333-469.333 469.333zM732.245 197.589l-256 234.667c-4.395 4.053-6.912 9.771-6.912 15.744v234.667c0 11.776 9.557 21.333 21.333 21.333s21.333-9.557 21.333-21.333v-225.28l249.088-228.309c8.704-7.979 9.259-21.461 1.323-30.165-8.021-8.704-21.461-9.259-30.165-1.323z" />
<glyph unicode="&#xe905;" glyph-name="calendar" d="M752.427 483.883l-304.939-325.248-133.76 133.76c-8.32 8.32-21.845 8.32-30.165 0s-8.32-21.845 0-30.165l149.333-149.333c4.181-4.139 9.771-6.357 15.445-6.229 5.76 0.085 11.264 2.517 15.189 6.741l320 341.333c8.064 8.576 7.637 22.101-0.981 30.165-8.533 8.064-22.059 7.595-30.123-1.024zM1002.667 874.667h-149.333v64c0 11.776-9.557 21.333-21.333 21.333h-128c-11.776 0-21.333-9.557-21.333-21.333v-64h-341.333v64c0 11.776-9.557 21.333-21.333 21.333h-128c-11.776 0-21.333-9.557-21.333-21.333v-64h-149.333c-11.776 0-21.333-9.557-21.333-21.333v-896c0-11.776 9.557-21.333 21.333-21.333h981.333c11.776 0 21.333 9.557 21.333 21.333v896c0 11.776-9.557 21.333-21.333 21.333zM725.333 917.333h85.333v-128h-85.333v128zM213.333 917.333h85.333v-128h-85.333v128zM170.667 832v-64c0-11.776 9.557-21.333 21.333-21.333h128c11.776 0 21.333 9.557 21.333 21.333v64h341.333v-64c0-11.776 9.557-21.333 21.333-21.333h128c11.776 0 21.333 9.557 21.333 21.333v64h128v-170.667h-938.667v170.667h128zM42.667-21.333v640h938.667v-640h-938.667z" />
<glyph unicode="&#xe906;" glyph-name="paper-plane" d="M994.517 915.712l-981.333-405.333c-8.064-3.328-13.269-11.221-13.184-19.968 0.085-8.704 5.461-16.469 13.611-19.627l370.389-144.043v-326.741c0-21.717 28.8-29.483 39.765-10.752l140.288 240.469 257.707-141.696c12.203-6.784 28.075-0.043 31.104 14.165l170.667 789.333c3.541 17.792-14.592 30.251-29.013 24.192zM901.419 831.104l-500.821-465.024-321.92 125.227 822.741 339.797zM426.667 78.933v226.347l99.968-54.955-99.968-171.392zM817.195 139.136l-375.723 206.677 525.995 488.405-150.272-695.083z" />
<glyph unicode="&#xe907;" glyph-name="email-3" d="M1014.869 550.827l-490.667 341.333c-7.339 5.077-17.024 5.077-24.363 0l-490.667-341.333c-5.717-3.968-9.173-11.776-9.173-17.493v-469.333c0-47.061 38.272-85.333 85.333-85.333h853.333c47.061 0 85.333 38.272 85.333 85.333v469.333c0 5.461-3.328 13.483-9.131 17.493zM938.667 21.333h-853.333c-23.509 0-42.667 19.157-42.667 42.667v429.44l222.848-148.523c3.627-2.432 7.723-3.584 11.819-3.584 6.912 0 13.653 3.328 17.792 9.515 6.528 9.813 3.883 23.040-5.931 29.568l-229.973 153.301 452.779 314.965 452.779-314.965-229.931-153.301c-9.813-6.528-12.459-19.755-5.931-29.568 4.096-6.187 10.88-9.515 17.749-9.515 4.053 0 8.149 1.152 11.819 3.584l222.848 148.523v-429.44c0-23.509-19.157-42.667-42.667-42.667zM673.579 316.117c-3.584 2.517-7.851 3.883-12.245 3.883h-298.667c-4.395 0-8.661-1.365-12.245-3.883l-213.333-149.333c-9.685-6.741-11.989-20.053-5.248-29.653 6.784-9.728 20.096-12.032 29.696-5.291l207.872 145.493h285.227l207.829-145.493c9.685-6.784 22.997-4.395 29.696 5.291 6.741 9.643 4.437 22.955-5.248 29.653l-213.333 149.333z" />
<glyph unicode="&#xe908;" glyph-name="email-2" d="M853.333 490.667h-682.667c-47.061 0-85.333-38.229-85.333-85.333v-384c0-47.061 38.272-85.333 85.333-85.333h682.667c47.061 0 85.333 38.272 85.333 85.333v384c0 47.104-38.272 85.333-85.333 85.333zM853.333 448c2.219 0 4.139-0.896 6.272-1.28l-347.605-270.379-347.605 270.379c2.133 0.384 4.053 1.28 6.272 1.28h682.667zM896 21.333c0-23.509-19.157-42.667-42.667-42.667h-682.667c-23.509 0-42.667 19.157-42.667 42.667v384c0 4.779 1.28 9.216 2.731 13.483l368.128-286.336c3.84-2.987 8.491-4.48 13.099-4.48s9.259 1.493 13.099 4.48l368.128 286.336c1.536-4.267 2.816-8.704 2.816-13.483v-384zM475.563 560.939c8.235-8.277 21.845-8.405 30.208 0l192 191.957c8.32 8.32 8.32 21.845 0 30.165s-21.845 8.32-30.165 0l-155.605-155.563v311.168c0 11.776-9.557 21.333-21.333 21.333s-21.333-9.557-21.333-21.333v-311.168l-155.563 155.605c-8.32 8.32-21.845 8.32-30.165 0s-8.32-21.845 0-30.165l191.957-192z" />
<glyph unicode="&#xe909;" glyph-name="email-1" d="M896 789.333h-768c-47.061 0-85.333-38.229-85.333-85.333v-469.333c0-47.061 38.272-85.333 85.333-85.333h768c47.061 0 85.333 38.272 85.333 85.333v469.333c0 47.104-38.272 85.333-85.333 85.333zM896 746.667c2.432 0 4.48-0.981 6.784-1.365l-390.784-312.661-390.784 312.661c2.304 0.384 4.352 1.365 6.784 1.365h768zM938.667 234.667c0-23.509-19.157-42.667-42.667-42.667h-768c-23.509 0-42.667 19.157-42.667 42.667v469.333c0 4.651 1.28 8.96 2.645 13.184l410.667-328.533c3.925-3.072 8.661-4.651 13.355-4.651s9.429 1.579 13.312 4.651l410.667 328.533c1.408-4.224 2.688-8.533 2.688-13.184v-469.333z" />
<glyph unicode="&#xe910;" glyph-name="people" d="M448 377.045v59.008c15.829 12.203 39.125 40.661 42.283 103.68 17.792 11.819 27.947 38.187 27.947 63.915 0 14.251-3.243 26.923-9.387 36.651-2.901 4.693-6.443 8.619-10.496 11.776 9.387 21.888 23.083 59.477 13.013 99.755-14.805 59.179-89.344 80.171-148.693 80.171-52.864 0-117.803-16.64-141.781-62.123-19.797 1.152-33.92-4.608-43.52-16.341-21.803-26.667-4.352-70.528 8.491-100.949-4.395-3.243-8.277-7.381-11.435-12.331-6.4-9.984-9.771-22.869-9.771-37.333 0-25.429 10.069-51.499 27.733-63.189 3.2-63.019 26.453-91.477 42.283-103.68v-58.965c-80.043-32.64-234.667-101.035-234.667-142.421v-192c0-11.776 9.557-21.333 21.333-21.333h640c11.776 0 21.333 9.557 21.333 21.333v192c0 41.387-154.624 109.781-234.667 142.379zM640 64h-597.333v166.229c16.512 18.261 111.147 68.608 221.269 112.64 8.064 3.243 13.397 11.051 13.397 19.797v85.333c0 8.363-5.845 16.341-13.44 19.797-0.299 0.171-29.227 14.165-29.227 86.869 0 11.776-7.040 20.693-18.773 20.693-4.907 3.371-11.563 23.979-7.168 38.144 1.579 5.163 2.901 5.163 4.608 5.163 5.675 0 11.093 2.261 15.104 6.229s6.229 9.429 6.229 15.104c0 6.784-2.731 13.269-8.149 26.069-17.92 42.283-18.645 56.277-16.341 60.203 0 0.085 4.395 2.731 20.224-0.512 11.093-2.219 22.187 4.651 24.96 15.744 6.912 27.691 52.053 47.829 107.307 47.829s100.395-20.139 107.307-47.829c7.723-30.933-5.76-61.227-13.781-79.36-4.267-9.557-6.827-15.36-6.827-22.144 0-11.776 10.795-21.461 22.613-21.461 0.896-0.64 3.499-5.12 3.584-14.336 0.171-14.72-5.717-26.709-6.229-28.203-11.776 0-21.333-9.557-21.333-21.333 0-72.235-28.544-86.528-28.373-86.528-8.576-2.987-14.293-11.093-14.293-20.139v-85.333c0-8.747 5.333-16.555 13.397-19.84 110.080-43.989 204.757-94.379 221.269-112.64v-166.187zM893.227 311.979c-20.096 7.211-41.045 14.763-61.227 22.528v36.608c15.915 10.581 38.699 34.304 42.197 84.651 14.421 12.16 21.888 36.864 21.888 61.355 0 9.6-1.237 23.552-7.253 35.584-1.963 3.968-4.352 7.467-7.040 10.496 10.453 18.987 24.235 50.133 13.099 83.541-15.403 46.208-77.995 62.592-126.891 62.592-42.709 0-95.872-12.501-118.912-46.421-15.744 0.384-28.885-4.48-37.547-14.677-18.944-22.4-7.083-58.411 2.091-82.56-3.669-3.413-6.869-7.637-9.387-12.544-6.187-11.989-7.467-25.899-7.467-35.541 0-24.747 7.595-49.749 22.315-61.909 3.541-50.261 26.325-73.941 42.197-84.523v-29.824c0-11.776 9.557-21.333 21.333-21.333s21.333 9.557 21.333 21.333v42.667c0 9.045-6.4 17.365-14.976 20.352-1.067 0.384-27.648 10.368-27.648 64.981 0 9.984-6.827 18.389-16.085 20.651-6.187 9.472-8.277 38.059-5.248 43.349 11.776 0 21.333 9.557 21.333 21.333 0 5.845-2.048 11.221-5.845 20.992-9.6 24.917-13.312 40.277-12.416 44.117 0 0.043 3.413 1.451 13.995-0.683 10.539-2.176 21.12 3.883 24.491 14.165 6.357 19.029 43.52 33.408 86.443 33.408s80.085-14.379 86.4-33.408c6.869-20.565-6.315-43.307-14.208-56.875-4.907-8.533-8.192-14.165-8.192-21.717 0-11.776 6.272-19.968 18.048-19.968 5.547-6.443 3.883-35.2-2.091-44.715-9.173-2.389-15.957-10.752-15.957-20.651 0-54.613-26.581-64.597-27.093-64.811-9.216-2.56-15.573-10.965-15.573-20.523v-64c0-8.747 5.333-16.555 13.397-19.84 24.576-9.813 50.901-19.285 76.032-28.331 37.973-13.653 89.131-32.085 102.571-42.539v-165.291h-213.333c-11.776 0-21.333-9.557-21.333-21.333s9.557-21.333 21.333-21.333h234.667c11.776 0 21.333 9.557 21.333 21.333v192c0 29.099-37.76 43.819-130.773 77.312z" />
<glyph unicode="&#xe911;" glyph-name="account" d="M512 960c-282.325 0-512-229.675-512-512 0-265.301 214.741-512 512-512 137.984 0 267.435 54.144 364.459 152.448 95.104 96.427 147.541 224.128 147.541 359.552 0 282.325-229.675 512-512 512zM198.613 99.413c43.947 24.021 108.075 47.403 170.752 70.144 21.931 7.936 43.819 15.872 64.853 23.851 8.32 3.157 13.781 11.093 13.781 19.968v106.624c0 8.917-5.888 16.981-14.251 20.139-2.048 0.725-49.749 19.456-49.749 107.861 0 11.776-8.832 21.077-20.565 21.077-2.005 1.365-5.888 9.301-5.888 21.589s3.883 20.224 5.12 21.333c11.776 0 21.333 9.557 21.333 21.333 0 5.291-1.579 10.923-5.035 23.211-5.845 20.864-23.68 84.395-7.424 101.973 5.888 6.4 19.371 5.291 29.611 3.243 11.179-2.304 22.144 4.651 24.875 15.744 6.912 27.691 56.576 47.829 117.973 47.829s111.061-20.139 117.973-47.829c9.771-39.125-7.595-93.355-15.957-119.424-4.139-13.013-6.016-18.901-6.016-24.747 0-11.776 8.832-21.077 20.565-21.077 1.963-1.365 5.845-9.301 5.845-21.589s-3.883-20.224-5.12-21.333c-11.776 0-21.333-9.557-21.333-21.333 0-88.405-47.701-107.136-49.408-107.776-8.661-2.901-14.549-11.051-14.549-20.224v-106.667c0-8.875 5.504-16.853 13.824-20.011 23.168-8.661 46.293-17.024 68.864-25.216 64.427-23.296 125.568-45.483 167.211-68.224-86.357-78.037-196.565-121.216-313.899-121.216-117.077 0-227.115 43.008-313.387 120.747zM857.941 130.901c-44.672 26.667-110.208 50.389-184.747 77.312-17.92 6.485-36.181 13.141-54.528 19.883v78.848c21.376 13.184 59.051 47.275 63.573 125.269 16.469 9.643 26.88 31.019 26.88 58.453 0 24.661-8.448 44.501-22.187 55.211 10.368 32.256 29.056 91.477 16.427 141.952-14.805 59.179-95.104 80.171-159.36 80.171-57.259 0-127.232-16.683-152.277-62.123-22.187 1.237-39.125-5.077-51.499-18.389-32.128-34.688-13.269-103.424-2.688-141.227-13.995-10.624-22.656-30.635-22.656-55.595 0-27.435 10.411-48.811 26.88-58.453 4.523-77.995 42.197-112.043 63.573-125.269v-78.848c-16.555-6.187-33.536-12.331-50.517-18.475-69.333-25.131-140.757-51.029-188.288-79.275-80 86.869-123.861 198.997-123.861 317.653 0 258.773 210.56 469.333 469.333 469.333s469.333-210.56 469.333-469.333c0-118.357-43.691-230.272-123.392-317.099z" />
<glyph unicode="&#xe912;" glyph-name="person" d="M897.621 244.352l-230.485 63.787c40.448 36.395 73.045 85.035 78.677 143.189 29.269 9.984 48.896 41.429 48.896 82.005 0 12.16-2.176 23.083-5.419 33.28l21.333 156.587c0.341 3.413 7.637 84.352-53.077 151.424-51.328 56.661-133.888 85.376-245.547 85.376s-194.176-28.715-245.461-85.376c-60.715-67.072-53.419-148.011-52.992-152.149l21.248-155.861c-3.243-10.197-5.461-21.12-5.461-33.28 0-40.576 19.627-72.021 48.896-82.005 5.675-58.411 38.571-107.307 79.275-143.744l-232.875-63.829c-74.539-27.904-124.629-100.139-124.629-179.755v-106.667c0-11.776 9.557-21.333 21.333-21.333h981.333c11.776 0 21.333 9.557 21.333 21.333v106.667c0 79.616-50.048 151.851-126.379 180.352zM298.155 845.995c42.837 47.36 114.816 71.339 213.845 71.339 98.688 0 170.496-23.851 213.376-70.827 48.085-52.693 42.752-118.272 42.795-118.272l-15.915-116.693c-3.029 1.451-5.675 3.669-8.917 4.608l-18.432 92.032c-1.963 9.984-10.709 17.152-20.907 17.152-127.317 0-148.736 35.883-162.944 59.563-4.224 7.040-8.192 13.696-13.995 19.499-8.021 8.021-22.187 8.021-30.165 0-5.76-5.803-9.771-12.459-13.995-19.499-14.123-23.68-35.584-59.563-162.901-59.563-10.155 0-18.901-7.168-20.907-17.152l-18.389-92.075c-3.285-0.939-5.931-3.157-8.96-4.608l-15.829 115.968c-0.043 0.597-5.931 65.323 42.24 118.528zM320 469.333c0 11.776-9.515 21.333-21.333 21.333-21.077 0-26.667 27.904-26.667 42.667s5.589 42.667 26.667 42.667c10.155 0 18.901 7.168 20.907 17.152l17.963 89.728c112.128 2.987 151.467 34.987 174.464 68.352 22.997-33.323 62.336-65.323 174.464-68.352l17.963-89.728c2.005-9.984 10.752-17.152 20.907-17.152 21.077 0 26.667-27.904 26.667-42.667s-5.547-42.667-26.667-42.667c-11.776 0-21.333-9.557-21.333-21.333 0-110.933-134.741-192-192-192s-192 81.067-192 192zM512 170.667c-23.509 0-42.667 19.115-42.667 42.667v29.184c16.128-5.12 30.848-7.851 42.667-7.851s26.581 2.731 42.667 7.851v-29.184c0-23.552-19.115-42.667-42.667-42.667zM42.667 64c0 61.909 38.955 118.101 95.061 139.221l263.040 72.021c8.661-5.461 17.323-10.453 25.941-14.891v-47.019c0-34.645 20.821-64.384 50.517-77.739l-104.619-156.928h-329.941v85.333zM423.893-21.333l88.107 132.224 88.149-132.224h-176.256zM981.333-21.333h-329.899l-104.619 156.928c29.739 13.355 50.517 43.093 50.517 77.739v47.019c8.917 4.523 17.877 9.771 26.837 15.403l260.267-71.936c57.984-21.717 96.896-77.909 96.896-139.819v-85.333zM405.376 554.197c4.053 0.555 38.613 0.555 42.667 0 0.171-11.563 9.685-20.949 21.333-20.949 11.776 0 21.333 9.557 21.333 21.333 0 12.715-3.797 22.955-11.349 30.421-12.629 12.544-30.208 12.16-47.147 12.288h-11.051c-16.683-0.171-34.475 0.256-47.147-12.288-7.509-7.467-11.349-17.707-11.349-30.421 0-11.776 9.643-20.181 21.419-20.181 10.88 0 19.968 9.131 21.291 19.797zM554.795 534.4c10.837 0 19.925 9.131 21.248 19.797 4.053 0.555 38.613 0.555 42.667 0 0.171-11.563 9.685-20.949 21.333-20.949 11.776 0 21.333 9.557 21.333 21.333 0 12.715-3.797 22.955-11.349 30.421-12.629 12.544-30.293 12.16-47.147 12.288h-11.051c-16.768-0.171-34.475 0.256-47.147-12.288-7.509-7.467-11.349-17.707-11.349-30.421 0-11.776 9.685-20.181 21.461-20.181zM746.667 106.667h149.333v-42.667h-149.333v42.667z" />
<glyph unicode="&#xe913;" glyph-name="chat" d="M1002.667 960h-640c-11.776 0-21.333-9.557-21.333-21.333v-170.667c0-11.776 9.557-21.333 21.333-21.333s21.333 9.557 21.333 21.333v149.333h597.333v-341.333h-128c-5.248 0-10.283-1.92-14.165-5.376l-156.501-139.136v123.179c0 11.776-9.557 21.333-21.333 21.333h-64c-11.776 0-21.333-9.557-21.333-21.333s9.557-21.333 21.333-21.333h42.667v-149.333c0-8.405 4.949-16 12.587-19.456 2.816-1.237 5.803-1.877 8.747-1.877 5.12 0 10.197 1.835 14.165 5.376l185.941 165.291h141.227c11.776 0 21.333 9.557 21.333 21.333v384c0 11.776-9.557 21.333-21.333 21.333zM810.667 746.667h42.667v-42.667h-42.667v42.667zM682.667 746.667h42.667v-42.667h-42.667v42.667zM554.667 746.667h42.667v-42.667h-42.667v42.667zM448 206.379v59.605c14.72 12.416 35.925 40.917 38.912 102.955 17.664 11.648 26.965 37.675 26.965 62.549 0 22.357-7.765 40.107-20.736 50.133 9.131 21.931 22.315 59.392 12.288 99.541-14.805 59.179-88.576 80.171-147.243 80.171-52.267 0-116.48-16.683-140.373-62.123-19.029 1.237-33.621-4.608-42.965-16.299-21.376-26.667-2.944-70.485 10.581-100.821-15.616-10.795-25.429-30.891-25.429-55.424 0-28.032 12.843-50.304 32.469-59.477 3.541-61.696 26.496-89.771 42.197-101.803v-59.051c-80.043-32.597-234.667-100.949-234.667-142.336v-106.667c0-11.776 9.557-21.333 21.333-21.333h640c11.776 0 21.333 9.557 21.333 21.333v106.667c0 41.387-154.624 109.739-234.667 142.379zM640-21.333h-597.333v80.896c16.512 18.261 111.147 68.608 221.269 112.683 8.064 3.157 13.397 11.051 13.397 19.755v85.333c0 8.363-5.845 16.341-13.44 19.84-0.299 0.128-29.227 14.123-29.227 86.827 0 11.776-9.557 21.333-21.333 21.333-7.339 0-10.667 12.459-10.667 21.333s3.328 21.333 10.667 21.333c11.776 0 21.333 9.557 21.333 21.333 0 7.083-2.987 13.739-8.917 27.051-18.56 41.557-19.712 55.595-18.091 59.349 0.043 0.085 4.608 2.432 19.755-0.64 11.136-2.261 22.187 4.651 24.96 15.744 7.851 31.403 59.179 47.829 105.813 47.829s97.963-16.427 105.813-47.829c7.765-31.104-5.376-61.483-13.227-79.659-4.096-9.472-6.571-15.147-6.571-21.845 0-11.776 9.557-21.333 21.333-21.333 1.152 0 2.475 0 4.053-4.949 4.565-14.165-1.664-34.944-3.712-37.717-11.776 0-21.333-9.557-21.333-21.333 0-71.979-25.728-86.741-25.515-86.699-8.235-3.157-13.696-11.093-13.696-19.968v-85.333c0-8.704 5.333-16.597 13.397-19.797 110.080-44.032 204.757-94.421 221.269-112.683v-80.853z" />
<glyph unicode="&#xe914;" glyph-name="testimonials-1" d="M362.667 406.101h-42.667c-5.675 0-11.093-2.261-15.104-6.229l-134.229-134.272v119.168c0 11.776-9.557 21.333-21.333 21.333h-106.667v469.333h768v-256c0-11.776 9.557-21.333 21.333-21.333s21.333 9.557 21.333 21.333v277.333c0 11.776-9.557 21.333-21.333 21.333h-810.667c-11.776 0-21.333-9.557-21.333-21.333v-512c0-11.776 9.557-21.333 21.333-21.333h106.667v-149.333c0-8.619 5.205-16.427 13.184-19.712 2.645-1.067 5.419-1.621 8.149-1.621 5.547 0 11.008 2.176 15.104 6.229l164.437 164.437h33.792c11.776 0 21.333 9.557 21.333 21.333s-9.557 21.333-21.333 21.333zM1002.667 534.101h-512c-11.776 0-21.333-9.557-21.333-21.333v-341.333c0-11.776 9.557-21.333 21.333-21.333h226.56l185.941-165.291c3.968-3.541 9.045-5.376 14.165-5.376 2.944 0 5.931 0.64 8.747 1.877 7.637 3.456 12.587 11.008 12.587 19.456v149.333h64c11.776 0 21.333 9.557 21.333 21.333v341.333c0 11.776-9.557 21.333-21.333 21.333zM981.333 192.768h-64c-11.776 0-21.333-9.557-21.333-21.333v-123.179l-156.501 139.136c-3.883 3.456-8.917 5.376-14.165 5.376h-213.333v298.667h469.333v-298.667z" />
<glyph unicode="&#xe915;" glyph-name="testimonials-2" d="M1002.667 960.768h-981.333c-11.776 0-21.333-9.557-21.333-21.333v-341.333c0-11.776 9.557-21.333 21.333-21.333h192v-128c0-8.149 4.651-15.573 11.947-19.157 2.987-1.451 6.187-2.176 9.387-2.176 4.651 0 9.259 1.536 13.099 4.48l186.197 144.853h568.704c11.776 0 21.333 9.557 21.333 21.333v341.333c0 11.776-9.557 21.333-21.333 21.333zM981.333 619.435h-554.667c-4.736 0-9.344-1.579-13.099-4.48l-157.568-122.581v105.728c0 11.776-9.557 21.333-21.333 21.333h-192v298.667h938.667v-298.667zM1002.667 491.435h-554.667c-11.776 0-21.333-9.557-21.333-21.333s9.557-21.333 21.333-21.333h533.333v-256h-192c-11.776 0-21.333-9.557-21.333-21.333v-123.179l-156.501 139.136c-3.883 3.456-8.917 5.376-14.165 5.376h-554.667v256h85.333c11.776 0 21.333 9.557 21.333 21.333s-9.557 21.333-21.333 21.333h-106.667c-11.776 0-21.333-9.557-21.333-21.333v-298.667c0-11.776 9.557-21.333 21.333-21.333h567.893l185.941-165.291c3.968-3.541 9.045-5.376 14.165-5.376 2.944 0 5.931 0.64 8.747 1.877 7.637 3.456 12.587 11.008 12.587 19.456v149.333h192c11.776 0 21.333 9.557 21.333 21.333v298.667c0 11.776-9.557 21.333-21.333 21.333z" />
<glyph unicode="&#xe916;" glyph-name="phone-1" d="M512 960c-282.325 0-512-229.675-512-512s229.675-512 512-512c186.88 0 255.104 70.016 279.424 128.725 19.925 48.043 13.952 96.683 2.56 124.032l14.208 14.208c16.811 16.853 26.709 38.699 27.904 61.525 1.237 23.723-6.955 45.611-23.083 61.696l-66.091 66.091c-32.597 32.64-87.936 30.464-123.179-4.864l-10.88-10.837c-62.037 51.328-121.088 110.336-172.288 172.288l10.837 10.837c35.328 35.285 37.504 90.581 4.907 123.264l-66.133 66.091c-16.085 16.085-37.973 24.107-61.696 23.040-22.827-1.237-44.715-11.136-61.483-27.989l-40.32-40.235c-41.643-41.643-50.859-105.301-21.888-151.296 104.192-165.205 246.613-307.627 411.819-411.776 17.963-11.349 38.656-16.896 59.648-16.896 29.355 0 58.965 11.307 83.157 31.829 3.84-20.309 4.565-51.584-11.093-82.773-30.976-61.696-112.725-94.293-236.331-94.293-258.773 0-469.333 210.56-469.333 469.333s210.56 469.333 469.333 469.333 469.333-210.56 469.333-469.333c0-95.317-28.373-187.051-82.091-265.259-6.656-9.728-4.224-22.997 5.504-29.653 9.728-6.699 23.040-4.224 29.653 5.504 58.624 85.333 89.6 185.429 89.6 289.408 0 282.325-229.675 512-512 512zM639.36 176.896c-159.872 100.779-297.685 238.592-398.507 398.464-18.432 29.269-11.691 70.656 16.043 98.347l40.32 40.235c9.344 9.387 21.248 14.891 33.579 15.488 0.811 0.043 1.579 0.085 2.347 0.085 10.539 0 20.011-3.755 26.923-10.667l66.091-66.048c16-16 13.781-44.203-4.907-62.933l-24.448-24.448c-7.68-7.723-8.363-19.925-1.579-28.416 59.776-74.667 130.944-145.792 205.781-205.781 8.448-6.741 20.736-6.187 28.416 1.579l24.533 24.448c18.688 18.688 46.848 20.864 62.891 4.864l66.091-66.091c7.424-7.467 11.221-17.835 10.624-29.312-0.64-12.331-6.187-24.235-15.488-33.621l-40.363-40.235c-27.691-27.733-69.035-34.432-98.347-15.957z" />
<glyph unicode="&#xe917;" glyph-name="phone-2" d="M732.587 270.763c-41.6 41.6-109.269 41.6-150.827 0l-16.427-16.427c-88.363 73.941-173.227 158.805-246.997 246.997l16.427 16.427c41.515 41.6 41.515 109.312 0 150.869l-90.539 90.496c-41.6 41.6-109.269 41.6-150.827 0l-49.707-49.664c-49.877-49.92-57.813-128.896-18.816-187.861 146.005-220.8 339.883-414.677 560.725-560.725 25.045-16.597 53.76-24.661 82.261-24.661 38.613 0 76.928 14.848 105.557 43.563l49.707 49.664c41.557 41.557 41.557 109.227 0 150.827l-90.539 90.496zM792.96 59.563l-49.749-49.664c-35.541-35.712-91.947-41.344-134.144-13.44-216.064 142.933-405.76 332.629-548.651 548.608-27.819 42.155-22.187 98.603 13.44 134.229l49.664 49.664c12.459 12.459 28.843 18.688 45.269 18.688s32.768-6.229 45.269-18.688l90.539-90.496c24.917-24.96 24.917-65.579 0-90.539l-30.165-30.165c-7.765-7.765-8.363-20.139-1.408-28.587 82.432-100.608 179.285-197.504 280.149-280.149 8.491-6.955 20.821-6.272 28.587 1.408l30.165 30.165c24.149 24.149 66.304 24.149 90.496 0l90.539-90.496c24.917-24.96 24.917-65.621 0-90.539zM512 960c-11.776 0-21.333-9.557-21.333-21.333s9.557-21.333 21.333-21.333c258.773 0 469.333-210.56 469.333-469.333 0-11.776 9.557-21.333 21.333-21.333s21.333 9.557 21.333 21.333c0 282.325-229.675 512-512 512zM512 746.667c164.693 0 298.667-134.016 298.667-298.667 0-11.776 9.557-21.333 21.333-21.333s21.333 9.557 21.333 21.333c0 188.203-153.131 341.333-341.333 341.333-11.776 0-21.333-9.557-21.333-21.333s9.557-21.333 21.333-21.333zM512 576c70.571 0 128-57.429 128-128 0-11.776 9.557-21.333 21.333-21.333s21.333 9.557 21.333 21.333c0 94.123-76.544 170.667-170.667 170.667-11.776 0-21.333-9.557-21.333-21.333s9.557-21.333 21.333-21.333z" />
<glyph unicode="&#xe918;" glyph-name="fax" d="M554.667 874.667h192v-42.667h-192v42.667zM554.667 789.333h298.667v-42.667h-298.667v42.667zM960 704h-21.333v149.333c0 6.485-2.944 12.629-8.021 16.683l-106.667 85.333c-3.755 2.987-8.448 4.651-13.312 4.651h-320c-11.776 0-21.333-9.557-21.333-21.333v-234.667h-42.667v21.333c0 58.837-47.872 106.667-106.667 106.667h-106.667v106.667c0 11.776-9.557 21.333-21.333 21.333s-21.333-9.557-21.333-21.333v-108.843c-48.64-9.899-85.333-52.949-85.333-104.491v-21.333h-21.333c-35.285 0-64-28.715-64-64v-554.667c0-35.285 28.715-64 64-64h23.509c9.899-48.64 52.992-85.333 104.491-85.333h128c51.499 0 94.592 36.693 104.491 85.333h535.509c35.285 0 64 28.715 64 64v554.667c0 35.285-28.715 64-64 64zM42.667 85.333v554.667c0 11.733 9.557 21.333 21.333 21.333h21.333v-597.333h-21.333c-11.776 0-21.333 9.6-21.333 21.333zM384 42.667c0-35.285-28.715-64-64-64h-128c-35.285 0-64 28.715-64 64v682.667c0 35.285 28.715 64 64 64h128c35.285 0 64-28.715 64-64v-682.667zM512 917.333h291.2l92.8-74.24v-139.093h-384v213.333zM981.333 85.333c0-11.733-9.557-21.333-21.333-21.333h-533.333v597.333h533.333c11.776 0 21.333-9.6 21.333-21.333v-554.667zM832 618.667h-256c-11.776 0-21.333-9.557-21.333-21.333v-85.333c0-11.776 9.557-21.333 21.333-21.333h256c11.776 0 21.333 9.557 21.333 21.333v85.333c0 11.776-9.557 21.333-21.333 21.333zM810.667 533.333h-213.333v42.667h213.333v-42.667zM554.667 405.333h42.667v-42.667h-42.667v42.667zM682.667 405.333h42.667v-42.667h-42.667v42.667zM810.667 405.333h42.667v-42.667h-42.667v42.667zM554.667 320h42.667v-42.667h-42.667v42.667zM682.667 320h42.667v-42.667h-42.667v42.667zM810.667 320h42.667v-42.667h-42.667v42.667zM554.667 234.667h42.667v-42.667h-42.667v42.667zM682.667 234.667h42.667v-42.667h-42.667v42.667zM810.667 234.667h42.667v-42.667h-42.667v42.667z" />
<glyph unicode="&#xe919;" glyph-name="document" d="M1002.667 960h-981.333c-11.776 0-21.333-9.557-21.333-21.333v-981.333c0-11.776 9.557-21.333 21.333-21.333h640c5.931 0 11.264 2.389 15.104 6.272l341.248 341.291c3.883 3.84 6.315 9.173 6.315 15.104v640c0 11.776-9.557 21.333-21.333 21.333zM640 298.667v-320h-597.333v938.667h938.667v-597.333h-320c-11.776 0-21.333-9.557-21.333-21.333zM951.168 277.333l-268.501-268.501v268.501h268.501zM760.875 719.915c-8.619 7.808-22.144 7.125-30.123-1.664l-347.605-388.523-112.043 112.043c-8.32 8.32-21.845 8.32-30.165 0s-8.32-21.845 0-30.165l128-128c3.968-4.011 9.387-6.272 15.061-6.272 0.213 0 0.384 0 0.597 0 5.888 0.171 11.435 2.731 15.317 7.125l362.667 405.333c7.851 8.789 7.083 22.229-1.707 30.123z" />
<glyph unicode="&#xe920;" glyph-name="certificate" d="M1002.667 960h-981.333c-11.776 0-21.333-9.557-21.333-21.333v-682.667c0-11.776 9.557-21.333 21.333-21.333h490.667c11.776 0 21.333 9.557 21.333 21.333s-9.557 21.333-21.333 21.333h-469.333v640h938.667v-341.333c0-11.776 9.557-21.333 21.333-21.333s21.333 9.557 21.333 21.333v362.667c0 11.776-9.557 21.333-21.333 21.333zM789.333 448c-47.061 0-85.333-38.272-85.333-85.333s38.272-85.333 85.333-85.333 85.333 38.272 85.333 85.333-38.272 85.333-85.333 85.333zM789.333 320c-23.552 0-42.667 19.157-42.667 42.667s19.115 42.667 42.667 42.667 42.667-19.157 42.667-42.667-19.115-42.667-42.667-42.667zM974.080 469.333c-19.371 33.579-55.424 51.755-92.459 53.205-18.816 32.896-53.547 53.461-92.288 53.461s-73.515-20.565-92.288-53.504c-0.171 0-0.341 0-0.555 0-37.76 0-72.619-19.755-91.861-53.163-19.413-33.579-18.944-73.899 0.128-106.667-19.072-32.811-19.499-73.131-0.171-106.667 8.832-15.317 21.248-27.392 35.413-36.352v-262.315c0-8.277 4.779-15.829 12.288-19.328 7.424-3.499 16.341-2.347 22.699 2.944l114.347 95.275 114.347-95.275c3.883-3.243 8.747-4.949 13.653-4.949 3.072 0 6.187 0.683 9.045 2.005 7.509 3.499 12.288 11.051 12.288 19.328v263.040c14.165 8.832 26.667 20.48 35.413 35.627 19.413 33.579 18.944 73.899-0.171 106.667 19.115 32.768 19.541 73.088 0.171 106.667zM896 2.859l-93.013 77.525c-7.936 6.571-19.413 6.571-27.349 0l-92.971-77.525v201.771c4.651-0.64 9.173-1.835 13.909-1.835 0.171 0 0.341 0 0.512 0 18.816-32.939 53.547-53.461 92.245-53.461 38.741 0 73.472 20.565 92.331 53.504 4.821 0.128 9.557 1.365 14.336 2.091v-202.069zM937.173 277.333c-13.227-22.955-38.827-35.2-65.152-31.061-9.685 1.408-19.499-4.011-23.125-13.312-9.728-24.875-33.109-40.96-59.563-40.96s-49.792 16.043-59.477 40.875c-3.2 8.277-11.179 13.611-19.883 13.611-1.024 0-2.176-0.085-3.243-0.256-26.283-4.181-52.011 8.192-65.195 31.104s-11.008 51.157 5.675 72.021c6.272 7.808 6.229 18.901 0 26.667-16.683 20.779-18.859 49.024-5.632 71.979 13.184 22.912 38.443 35.115 65.109 31.019 9.899-1.579 19.541 4.011 23.125 13.355 9.685 24.917 33.024 40.96 59.52 40.96s49.835-16.043 59.52-40.875c3.627-9.301 13.483-14.976 23.125-13.355 26.325 4.011 51.925-8.107 65.195-31.104 13.227-22.955 11.008-51.2-5.717-71.979-6.272-7.808-6.272-18.901 0-26.709 16.725-20.779 18.944-49.024 5.717-71.979zM917.333 597.333c11.776 0 21.333 9.557 21.333 21.333v106.667c0 11.776-9.557 21.333-21.333 21.333-58.837 0-106.667 47.872-106.667 106.667 0 11.776-9.557 21.333-21.333 21.333h-554.667c-11.776 0-21.333-9.557-21.333-21.333 0-58.795-47.829-106.667-106.667-106.667-11.776 0-21.333-9.557-21.333-21.333v-256c0-11.776 9.557-21.333 21.333-21.333 58.837 0 106.667-47.872 106.667-106.667 0-11.776 9.557-21.333 21.333-21.333h277.333c11.776 0 21.333 9.557 21.333 21.333s-9.557 21.333-21.333 21.333h-257.493c-9.429 65.323-61.227 117.12-126.507 126.464v216.405c65.28 9.344 117.077 61.141 126.507 126.464h514.987c9.429-65.323 61.227-117.12 126.507-126.464v-86.869c0-11.776 9.557-21.333 21.333-21.333z" />
<glyph unicode="&#xe921;" glyph-name="warning" d="M469.333 569.472v-326.485c0-11.776 9.557-21.333 21.333-21.333s21.333 9.557 21.333 21.333v326.485c0 11.776-9.557 21.333-21.333 21.333s-21.333-9.557-21.333-21.333zM509.739 905.557c-7.253 14.464-30.933 14.464-38.187 0l-469.333-938.667c-7.083-14.293 3.371-30.891 19.115-30.891h938.667c0.299 0 0.64-0.043 0.853 0 18.688 0 28.032 22.144 15.872 35.584l-466.987 933.973zM55.851-21.333l434.816 869.632 434.816-869.632h-869.632zM533.333 106.667c0-23.564-19.103-42.667-42.667-42.667s-42.667 19.103-42.667 42.667c0 23.564 19.103 42.667 42.667 42.667s42.667-19.103 42.667-42.667z" />
<glyph unicode="&#xe922;" glyph-name="info" d="M490.667 917.333c-270.549 0-490.667-220.117-490.667-490.667s220.117-490.667 490.667-490.667 490.667 220.117 490.667 490.667c0 270.549-220.117 490.667-490.667 490.667zM490.667-21.333c-247.040 0-448 200.96-448 448s200.96 448 448 448 448-200.96 448-448c0-247.040-200.96-448-448-448zM618.667 149.333h-106.667v362.667c0 11.776-9.557 21.333-21.333 21.333h-85.333c-11.776 0-21.333-9.557-21.333-21.333s9.557-21.333 21.333-21.333h64v-341.333h-106.667c-11.776 0-21.333-9.557-21.333-21.333s9.557-21.333 21.333-21.333h256c11.776 0 21.333 9.557 21.333 21.333s-9.557 21.333-21.333 21.333zM512 682.667c0-23.564-19.103-42.667-42.667-42.667s-42.667 19.103-42.667 42.667c0 23.564 19.103 42.667 42.667 42.667s42.667-19.103 42.667-42.667z" />
<glyph unicode="&#xe923;" glyph-name="question" d="M490.667 917.333c-270.549 0-490.667-220.117-490.667-490.667s220.117-490.667 490.667-490.667 490.667 220.117 490.667 490.667c0 270.549-220.117 490.667-490.667 490.667zM490.667-21.333c-247.040 0-448 200.96-448 448s200.96 448 448 448 448-200.96 448-448c0-247.040-200.96-448-448-448zM490.667 682.667c-82.347 0-149.333-66.987-149.333-149.333 0-11.776 9.557-21.333 21.333-21.333s21.333 9.557 21.333 21.333c0 58.795 47.829 106.667 106.667 106.667s106.667-47.872 106.667-106.667-47.829-106.667-106.667-106.667c-11.776 0-21.333-9.557-21.333-21.333v-128c0-11.776 9.557-21.333 21.333-21.333s21.333 9.557 21.333 21.333v108.16c72.277 10.411 128 72.704 128 147.84 0 82.347-66.987 149.333-149.333 149.333zM533.333 170.667c0-23.564-19.103-42.667-42.667-42.667s-42.667 19.103-42.667 42.667c0 23.564 19.103 42.667 42.667 42.667s42.667-19.103 42.667-42.667z" />
<glyph unicode="&#xe924;" glyph-name="recurring" d="M308.864 527.872c-9.003 7.509-22.443 6.315-30.037-2.688l-107.733-129.067c-10.624 76.715 5.035 154.795 46.165 223.659 50.261 84.224 132.352 145.109 225.28 167.040 122.496 29.013 250.667-11.605 334.293-106.027 7.851-8.875 21.291-9.685 30.080-1.835 8.832 7.808 9.685 21.291 1.835 30.080-93.995 106.283-238.037 152.149-376.021 119.296-104.021-24.533-195.968-92.587-252.075-186.667-38.229-63.957-56.619-134.997-55.253-206.464l-68.139 101.504c-6.613 9.899-19.968 12.373-29.568 5.845-9.771-6.571-12.416-19.84-5.845-29.568l118.912-177.067c7.936-11.733 24.875-12.8 34.091-1.792l136.747 163.755c7.509 9.003 6.315 22.443-2.731 29.995zM901.504 530.304c-9.557 14.208-28.117 11.861-37.077-1.792l-133.803-160.171c-7.552-9.045-6.315-22.485 2.688-30.037 9.088-7.552 22.485-6.357 30.037 2.688l102.613 122.837c3.669-154.368-109.013-304.171-266.411-341.333-114.944-27.349-234.112 6.187-318.507 89.344-8.32 8.192-21.845 8.192-30.165-0.256-8.235-8.363-8.149-21.888 0.256-30.165 95.189-93.867 229.333-130.987 358.229-100.437 172.331 40.661 294.101 194.176 299.563 361.643l75.947-113.152c6.656-9.941 20.053-12.288 29.568-5.845 9.771 6.571 12.416 19.84 5.845 29.568l-118.784 177.109z" />
<glyph unicode="&#xe925;" glyph-name="timetable" d="M746.667 490.709c-152.917 0-277.333-124.416-277.333-277.333s124.416-277.333 277.333-277.333 277.333 124.416 277.333 277.333-124.416 277.333-277.333 277.333zM746.667-21.291c-129.365 0-234.667 105.301-234.667 234.667s105.301 234.667 234.667 234.667 234.667-105.301 234.667-234.667-105.301-234.667-234.667-234.667zM853.333 192.043h-85.333v128c0 11.776-9.557 21.333-21.333 21.333s-21.333-9.557-21.333-21.333v-149.333c0-11.776 9.557-21.333 21.333-21.333h106.667c11.776 0 21.333 9.557 21.333 21.333s-9.557 21.333-21.333 21.333zM341.333 704.043h426.667c11.776 0 21.333 9.557 21.333 21.333s-9.557 21.333-21.333 21.333h-426.667c-11.776 0-21.333-9.557-21.333-21.333s9.557-21.333 21.333-21.333zM341.333 789.376h426.667c11.776 0 21.333 9.557 21.333 21.333s-9.557 21.333-21.333 21.333h-426.667c-11.776 0-21.333-9.557-21.333-21.333s9.557-21.333 21.333-21.333zM170.667 725.376c35.285 0 64 28.715 64 64s-28.715 64-64 64-64-28.715-64-64 28.715-64 64-64zM170.667 810.709c11.733 0 21.333-9.6 21.333-21.333s-9.6-21.333-21.333-21.333-21.333 9.6-21.333 21.333 9.6 21.333 21.333 21.333zM426.667 448.043h-85.333c-11.776 0-21.333-9.557-21.333-21.333s9.557-21.333 21.333-21.333h85.333c11.776 0 21.333 9.557 21.333 21.333s-9.557 21.333-21.333 21.333zM341.333 533.376c-11.776 0-21.333-9.557-21.333-21.333s9.557-21.333 21.333-21.333h128c11.776 0 21.333 9.557 21.333 21.333s-9.557 21.333-21.333 21.333h-128zM106.667 490.709c0-35.285 28.715-64 64-64s64 28.715 64 64-28.715 64-64 64-64-28.715-64-64zM192 490.709c0-11.733-9.6-21.333-21.333-21.333s-21.333 9.6-21.333 21.333 9.6 21.333 21.333 21.333 21.333-9.6 21.333-21.333zM426.667 64.043h-362.667c-11.733 0-21.333 9.6-21.333 21.333v213.333c0 11.733 9.6 21.333 21.333 21.333h320c11.776 0 21.333 9.557 21.333 21.333s-9.557 21.333-21.333 21.333h-320c-11.733 0-21.333 9.6-21.333 21.333v213.333c0 11.733 9.6 21.333 21.333 21.333h810.667c11.733 0 21.333-9.6 21.333-21.333v-64c0-11.776 9.557-21.333 21.333-21.333s21.333 9.557 21.333 21.333v64c0 16.469-6.4 31.317-16.64 42.667 10.197 11.392 16.64 26.197 16.64 42.667v213.333c0 35.285-28.715 64-64 64h-810.667c-35.285 0-64-28.715-64-64v-213.333c0-16.469 6.4-31.275 16.683-42.667-10.283-11.349-16.683-26.197-16.683-42.667v-213.333c0-16.469 6.4-31.275 16.683-42.667-10.283-11.349-16.683-26.197-16.683-42.667v-213.333c0-35.285 28.715-64 64-64h362.667c11.776 0 21.333 9.557 21.333 21.333s-9.557 21.333-21.333 21.333zM42.667 896.043c0 11.733 9.6 21.333 21.333 21.333h810.667c11.733 0 21.333-9.6 21.333-21.333v-213.333c0-11.733-9.6-21.333-21.333-21.333h-810.667c-11.733 0-21.333 9.6-21.333 21.333v213.333zM106.667 192.043c0-35.285 28.715-64 64-64s64 28.715 64 64-28.715 64-64 64-64-28.715-64-64zM192 192.043c0-11.733-9.6-21.333-21.333-21.333s-21.333 9.6-21.333 21.333 9.6 21.333 21.333 21.333 21.333-9.6 21.333-21.333z" />
<glyph unicode="&#xe926;" glyph-name="error" d="M490.667-21.333c270.549 0 490.667 220.117 490.667 490.667s-220.117 490.667-490.667 490.667-490.667-220.117-490.667-490.667 220.117-490.667 490.667-490.667zM490.667 917.333c247.040 0 448-200.96 448-448s-200.96-448-448-448-448 200.96-448 448 200.96 448 448 448zM294.528 273.195c8.32-8.32 21.845-8.32 30.165 0l165.973 165.973 165.931-165.973c8.32-8.32 21.845-8.32 30.165 0s8.32 21.845 0 30.165l-165.931 165.973 165.931 165.931c8.32 8.32 8.32 21.845 0 30.165s-21.845 8.32-30.165 0l-165.931-165.973-165.973 165.973c-8.32 8.32-21.845 8.32-30.165 0s-8.32-21.845 0-30.165l165.973-165.931-165.973-165.973c-8.32-8.32-8.32-21.803 0-30.165z" />
<glyph unicode="&#xe927;" glyph-name="picture" d="M1002.667 960h-981.333c-11.776 0-21.333-9.557-21.333-21.333v-981.333c0-11.776 9.557-21.333 21.333-21.333h981.333c11.776 0 21.333 9.557 21.333 21.333v981.333c0 11.776-9.557 21.333-21.333 21.333zM981.333 917.333v-682.667h-29.483l-144.981 289.92c-15.445 31.019-45.355 50.176-80.043 51.328-35.029 1.323-65.792-16.043-83.285-45.995l-112.555-192.939c-33.152 40.021-104.021 111.019-189.653 111.019-105.173 0-183.936-162.176-206.165-213.333h-92.501v682.667h938.667zM904.149 234.667h-722.048c30.976 65.323 94.549 170.667 159.232 170.667 93.824 0 173.44-117.333 174.251-118.528 4.053-6.101 10.496-8.96 18.389-9.472 7.339 0.213 14.080 4.224 17.792 10.581l128.64 220.501c9.429 16.171 26.368 25.6 45.013 24.832 18.731-0.597 34.944-10.965 43.264-27.691l135.467-270.891zM42.667-21.333v213.333h938.667v-213.333h-938.667zM277.333 576h128c70.571 0 128 57.429 128 128s-57.429 128-128 128c-55.339 0-102.955-34.944-120.533-85.717-49.323 4.821-92.8-35.2-92.8-84.949 0-47.061 38.272-85.333 85.333-85.333zM276.907 704c5.291 0 10.624-1.024 15.787-3.029 6.059-2.261 12.757-1.792 18.347 1.408 5.547 3.243 9.387 8.747 10.411 15.104 6.656 41.643 41.941 71.851 83.883 71.851 47.061 0 85.333-38.272 85.333-85.333s-38.272-85.333-85.333-85.333h-128c-23.509 0-42.667 19.157-42.667 42.667s18.944 42.667 42.24 42.667z" />
<glyph unicode="&#xe928;" glyph-name="handbag" d="M810.752 575.317h-85.419v171.349c0 117.632-95.701 213.333-213.333 213.333s-213.333-95.701-213.333-213.333v-171.349h-85.248c-117.632 0-213.333-95.701-213.333-213.333v-277.333c0-82.347 66.987-149.333 149.333-149.333h725.333c82.347 0 149.333 66.987 149.333 149.333v277.333c0 117.632-95.701 213.333-213.333 213.333zM341.333 746.667c0 94.123 76.544 170.667 170.667 170.667s170.667-76.544 170.667-170.667v-171.349h-341.333v171.349zM213.419 532.651h85.248v-63.317c0-11.776 9.557-21.333 21.333-21.333s21.333 9.557 21.333 21.333v63.317h341.333v-63.317c0-11.776 9.557-21.333 21.333-21.333s21.333 9.557 21.333 21.333v63.317h85.419c94.123 0 170.667-76.544 170.667-170.667v-171.733c-112.384-10.197-202.027-99.883-212.267-212.267h-514.133c-10.197 112.384-99.883 202.027-212.267 212.267v171.733c0 94.080 76.544 170.667 170.667 170.667zM42.752 84.651v61.867c88.619-9.984 158.549-79.872 168.491-168.533h-61.824c-58.837 0-106.667 47.829-106.667 106.667zM874.752-22.016h-61.824c9.941 88.661 79.872 158.549 168.491 168.533v-61.867c0-58.837-47.829-106.667-106.667-106.667zM106.667 320h810.667c11.776 0 21.333 9.557 21.333 21.333s-9.557 21.333-21.333 21.333h-810.667c-11.776 0-21.333-9.557-21.333-21.333s9.557-21.333 21.333-21.333zM192 298.667c-11.776 0-21.333-9.557-21.333-21.333v-42.667c0-11.776 9.557-21.333 21.333-21.333s21.333 9.557 21.333 21.333v42.667c0 11.776-9.557 21.333-21.333 21.333z" />
<glyph unicode="&#xe929;" glyph-name="calc" d="M832 960h-597.333c-35.285 0-64-28.715-64-64v-896c0-35.285 28.715-64 64-64h597.333c35.285 0 64 28.715 64 64v896c0 35.285-28.715 64-64 64zM853.333 0c0-11.776-9.6-21.333-21.333-21.333h-597.333c-11.733 0-21.333 9.557-21.333 21.333v896c0 11.776 9.6 21.333 21.333 21.333h597.333c11.733 0 21.333-9.557 21.333-21.333v-896zM789.333 874.667h-512c-11.776 0-21.333-9.557-21.333-21.333v-213.333c0-11.776 9.557-21.333 21.333-21.333h512c11.776 0 21.333 9.557 21.333 21.333v213.333c0 11.776-9.557 21.333-21.333 21.333zM768 661.333h-469.333v170.667h469.333v-170.667zM704 704c11.776 0 21.333 9.557 21.333 21.333v42.667c0 11.776-9.557 21.333-21.333 21.333s-21.333-9.557-21.333-21.333v-42.667c0-11.776 9.557-21.333 21.333-21.333zM362.667 490.667h-42.667c-11.776 0-21.333-9.557-21.333-21.333s9.557-21.333 21.333-21.333h42.667c11.776 0 21.333 9.557 21.333 21.333s-9.557 21.333-21.333 21.333zM490.667 490.667h-42.667c-11.776 0-21.333-9.557-21.333-21.333s9.557-21.333 21.333-21.333h42.667c11.776 0 21.333 9.557 21.333 21.333s-9.557 21.333-21.333 21.333zM576 448h42.667c11.776 0 21.333 9.557 21.333 21.333s-9.557 21.333-21.333 21.333h-42.667c-11.776 0-21.333-9.557-21.333-21.333s9.557-21.333 21.333-21.333zM746.667 490.667h-42.667c-11.776 0-21.333-9.557-21.333-21.333s9.557-21.333 21.333-21.333h42.667c11.776 0 21.333 9.557 21.333 21.333s-9.557 21.333-21.333 21.333zM362.667 362.667h-42.667c-11.776 0-21.333-9.557-21.333-21.333s9.557-21.333 21.333-21.333h42.667c11.776 0 21.333 9.557 21.333 21.333s-9.557 21.333-21.333 21.333zM490.667 362.667h-42.667c-11.776 0-21.333-9.557-21.333-21.333s9.557-21.333 21.333-21.333h42.667c11.776 0 21.333 9.557 21.333 21.333s-9.557 21.333-21.333 21.333zM576 320h42.667c11.776 0 21.333 9.557 21.333 21.333s-9.557 21.333-21.333 21.333h-42.667c-11.776 0-21.333-9.557-21.333-21.333s9.557-21.333 21.333-21.333zM746.667 362.667h-42.667c-11.776 0-21.333-9.557-21.333-21.333s9.557-21.333 21.333-21.333h42.667c11.776 0 21.333 9.557 21.333 21.333s-9.557 21.333-21.333 21.333zM362.667 234.667h-42.667c-11.776 0-21.333-9.557-21.333-21.333s9.557-21.333 21.333-21.333h42.667c11.776 0 21.333 9.557 21.333 21.333s-9.557 21.333-21.333 21.333zM490.667 234.667h-42.667c-11.776 0-21.333-9.557-21.333-21.333s9.557-21.333 21.333-21.333h42.667c11.776 0 21.333 9.557 21.333 21.333s-9.557 21.333-21.333 21.333zM576 192h42.667c11.776 0 21.333 9.557 21.333 21.333s-9.557 21.333-21.333 21.333h-42.667c-11.776 0-21.333-9.557-21.333-21.333s9.557-21.333 21.333-21.333zM746.667 234.667h-42.667c-11.776 0-21.333-9.557-21.333-21.333s9.557-21.333 21.333-21.333h42.667c11.776 0 21.333 9.557 21.333 21.333s-9.557 21.333-21.333 21.333zM362.667 106.667h-42.667c-11.776 0-21.333-9.557-21.333-21.333s9.557-21.333 21.333-21.333h42.667c11.776 0 21.333 9.557 21.333 21.333s-9.557 21.333-21.333 21.333zM490.667 106.667h-42.667c-11.776 0-21.333-9.557-21.333-21.333s9.557-21.333 21.333-21.333h42.667c11.776 0 21.333 9.557 21.333 21.333s-9.557 21.333-21.333 21.333zM746.667 106.667h-170.667c-11.776 0-21.333-9.557-21.333-21.333s9.557-21.333 21.333-21.333h170.667c11.776 0 21.333 9.557 21.333 21.333s-9.557 21.333-21.333 21.333z" />
<glyph unicode="&#xe930;" glyph-name="wallet" d="M768 362.667c0-23.564-19.103-42.667-42.667-42.667s-42.667 19.103-42.667 42.667c0 23.564 19.103 42.667 42.667 42.667s42.667-19.103 42.667-42.667zM234.667 661.333h-42.667c-11.776 0-21.333-9.557-21.333-21.333s9.557-21.333 21.333-21.333h42.667c11.776 0 21.333 9.557 21.333 21.333s-9.557 21.333-21.333 21.333zM362.667 661.333h-42.667c-11.776 0-21.333-9.557-21.333-21.333s9.557-21.333 21.333-21.333h42.667c11.776 0 21.333 9.557 21.333 21.333s-9.557 21.333-21.333 21.333zM490.667 661.333h-42.667c-11.776 0-21.333-9.557-21.333-21.333s9.557-21.333 21.333-21.333h42.667c11.776 0 21.333 9.557 21.333 21.333s-9.557 21.333-21.333 21.333zM576 618.667h42.667c11.776 0 21.333 9.557 21.333 21.333s-9.557 21.333-21.333 21.333h-42.667c-11.776 0-21.333-9.557-21.333-21.333s9.557-21.333 21.333-21.333zM704 618.667h42.667c11.776 0 21.333 9.557 21.333 21.333s-9.557 21.333-21.333 21.333h-42.667c-11.776 0-21.333-9.557-21.333-21.333s9.557-21.333 21.333-21.333zM234.667 106.667h-42.667c-11.776 0-21.333-9.557-21.333-21.333s9.557-21.333 21.333-21.333h42.667c11.776 0 21.333 9.557 21.333 21.333s-9.557 21.333-21.333 21.333zM362.667 106.667h-42.667c-11.776 0-21.333-9.557-21.333-21.333s9.557-21.333 21.333-21.333h42.667c11.776 0 21.333 9.557 21.333 21.333s-9.557 21.333-21.333 21.333zM490.667 106.667h-42.667c-11.776 0-21.333-9.557-21.333-21.333s9.557-21.333 21.333-21.333h42.667c11.776 0 21.333 9.557 21.333 21.333s-9.557 21.333-21.333 21.333zM618.667 106.667h-42.667c-11.776 0-21.333-9.557-21.333-21.333s9.557-21.333 21.333-21.333h42.667c11.776 0 21.333 9.557 21.333 21.333s-9.557 21.333-21.333 21.333zM682.667 85.333c0-11.776 9.557-21.333 21.333-21.333h42.667c11.776 0 21.333 9.557 21.333 21.333s-9.557 21.333-21.333 21.333h-42.667c-11.776 0-21.333-9.557-21.333-21.333zM917.248 490.667h-21.248v106.667c0 59.307-35.072 110.293-85.333 134.357v78.976c0 58.795-66.987 106.667-149.333 106.667h-512c-82.347 0-149.333-66.987-149.333-149.333v-640c0-82.347 66.987-149.333 149.333-149.333h597.333c82.347 0 149.333 66.987 149.333 149.333v106.667h21.248c58.837 0 106.667 47.872 106.667 106.667v42.667c0 58.795-47.829 106.667-106.667 106.667zM853.333 128c0-58.795-47.829-106.667-106.667-106.667h-597.333c-58.837 0-106.667 47.872-106.667 106.667v640c0 58.795 47.829 106.667 106.667 106.667h512c56.832 0 106.667-29.909 106.667-64v-66.176c-7.040 1.024-14.037 2.176-21.333 2.176h-597.333c-19.968 0-20.992 17.792-20.992 21.333s1.024 21.333 20.992 21.333h512c11.776 0 21.333 9.557 21.333 21.333s-9.557 21.333-21.333 21.333h-512c-19.072 0-36.053-7.296-47.744-20.565-10.24-11.605-15.915-27.051-15.915-43.435 0-31.787 21.888-64 63.659-64h597.333c58.837 0 106.667-47.872 106.667-106.667v-106.667h-149.419c-58.837 0-106.667-47.872-106.667-106.667v-42.667c0-58.795 47.829-106.667 106.667-106.667h149.419v-106.667zM981.248 341.333c0-35.285-28.715-64-64-64h-213.333c-35.285 0-64 28.715-64 64v42.667c0 35.285 28.715 64 64 64h213.333c35.285 0 64-28.715 64-64v-42.667z" />
<glyph unicode="&#xe931;" glyph-name="credit-card" d="M938.667 832h-640c-47.061 0-85.333-38.229-85.333-85.333v-49.792c-84.523-18.091-213.333-81.323-213.333-298.624v-142.251c0-129.408 105.301-234.667 234.667-234.667h320c47.061 0 85.333 38.272 85.333 85.333 0 15.616-4.48 30.080-11.861 42.667h97.195c47.061 0 85.333 38.272 85.333 85.333 0 15.616-4.48 30.080-11.861 42.667h139.861c47.061 0 85.333 38.272 85.333 85.333v384c0 47.104-38.272 85.333-85.333 85.333zM256 746.667c0 23.509 19.115 42.667 42.667 42.667h640c23.552 0 42.667-19.157 42.667-42.667v-85.333h-482.645c-19.115 27.947-56.192 42.667-93.355 42.667h-128c-4.992 0-12.501-0.299-21.333-0.939v43.605zM768 234.667c0-23.509-19.115-42.667-42.667-42.667h-277.333c-11.776 0-21.333-9.557-21.333-21.333s9.557-21.333 21.333-21.333h106.667c23.552 0 42.667-19.157 42.667-42.667s-19.115-42.667-42.667-42.667h-320c-105.856 0-192 86.144-192 192v142.251c0 244.096 179.627 263.083 234.667 263.083h128c25.728 0 64-11.349 64-42.667v-21.333c0-33.749-41.856-42.667-64-42.667h-85.333c-9.557 0-17.877-6.315-20.48-15.488-10.667-37.205-50.731-133.845-107.52-133.845-11.776 0-21.333-9.557-21.333-21.333s9.557-21.333 21.333-21.333c7.467 0 14.507 1.109 21.333 2.731v-2.731c0-47.061 38.272-85.333 85.333-85.333h426.667c23.552 0 42.667-19.157 42.667-42.667zM938.667 320h-640c-23.552 0-42.667 19.157-42.667 42.667v24.021c43.349 34.261 69.248 96.299 79.488 125.312h69.845c52.992 0 106.667 29.355 106.667 85.333v21.333h469.333v-256c0-23.509-19.115-42.667-42.667-42.667zM917.333 576h-128c-11.776 0-21.333-9.557-21.333-21.333s9.557-21.333 21.333-21.333h128c11.776 0 21.333 9.557 21.333 21.333s-9.557 21.333-21.333 21.333z" />
<glyph unicode="&#xe932;" glyph-name="map" d="M640 897.195l256-182.869v-202.325c0-11.776 9.557-21.333 21.333-21.333s21.333 9.557 21.333 21.333v213.333c0 6.912-3.328 13.355-8.917 17.365l-298.667 213.333c-0.384 0.256-0.896 0.128-1.28 0.427-3.285 2.048-6.955 3.541-11.136 3.541s-7.851-1.493-11.136-3.541c-0.384-0.256-0.896-0.128-1.28-0.427l-286.251-204.501-286.251 204.501c-6.485 4.693-15.061 5.291-22.187 1.621s-11.563-10.965-11.563-18.987v-682.667c0-6.912 3.328-13.355 8.917-17.365l298.667-213.333c0.384-0.299 0.896-0.171 1.28-0.427 3.285-2.048 6.955-3.541 11.136-3.541s7.851 1.493 11.136 3.541c0.384 0.256 0.896 0.128 1.28 0.427l256 182.869c9.6 6.827 11.819 20.181 4.949 29.739-6.869 9.6-20.139 11.819-29.739 4.992l-222.293-158.805v630.272l256 182.869v-385.237c0-11.776 9.557-21.333 21.333-21.333s21.333 9.557 21.333 21.333v385.195zM42.667 897.195l256-182.869v-630.229l-256 182.827v630.272zM832 448c-105.856 0-192-86.144-192-192 0-99.115 157.653-290.816 175.616-312.32 4.053-4.864 10.069-7.68 16.384-7.68s12.331 2.816 16.384 7.68c17.963 21.504 175.616 213.205 175.616 312.32 0 105.856-86.144 192-192 192zM832-8.832c-53.12 66.816-149.333 201.173-149.333 264.832 0 82.347 66.987 149.333 149.333 149.333s149.333-66.987 149.333-149.333c0-63.616-96.256-197.973-149.333-264.832zM832 341.333c-47.061 0-85.333-38.272-85.333-85.333s38.272-85.333 85.333-85.333 85.333 38.272 85.333 85.333c0 47.061-38.272 85.333-85.333 85.333zM832 213.333c-23.509 0-42.667 19.157-42.667 42.667s19.157 42.667 42.667 42.667 42.667-19.157 42.667-42.667-19.157-42.667-42.667-42.667z" />
<glyph unicode="&#xe933;" glyph-name="location" d="M512 960c-188.203 0-341.333-153.131-341.333-341.333 0-181.12 310.315-653.099 323.541-673.067 3.925-6.016 10.624-9.6 17.792-9.6s13.867 3.584 17.792 9.6c13.227 19.968 323.541 491.947 323.541 673.067 0 188.203-153.131 341.333-341.333 341.333zM512-3.413c-66.816 104.448-298.667 477.184-298.667 622.080 0 164.693 133.973 298.667 298.667 298.667s298.667-133.973 298.667-298.667c0-144.853-231.851-517.632-298.667-622.080zM512 768c-82.347 0-149.333-66.987-149.333-149.333s66.987-149.333 149.333-149.333 149.333 66.987 149.333 149.333-66.987 149.333-149.333 149.333zM512 512c-58.795 0-106.667 47.872-106.667 106.667s47.872 106.667 106.667 106.667 106.667-47.872 106.667-106.667-47.872-106.667-106.667-106.667z" />
<glyph unicode="&#xe934;" glyph-name="disabled" d="M937.557 70.741c-3.712 11.179-15.744 17.237-26.965 13.44-20.395-6.784-51.115-15.787-68.651-19.029-5.12 14.677-11.904 45.696-17.109 69.461-22.315 101.76-38.059 164.053-78.165 164.053-38.229 0-267.221-44.672-344.448-59.947l-22.741 174.464 223.147 56.832c11.435 2.901 18.304 14.549 15.403 25.941-2.901 11.435-14.549 18.347-25.941 15.403l-218.155-55.595-30.549 233.899c58.923 15.616 102.741 68.864 102.741 132.651 0 75.904-61.781 137.685-137.728 137.685s-137.728-61.781-137.728-137.728c0-73.387 57.856-132.949 130.261-136.96l31.317-240.171-0.939-0.256c-0.213-0.043-0.341-0.213-0.555-0.256-111.957-20.523-202.752-133.205-202.752-252.629 0-141.184 112.939-256 251.776-256 141.056 0 260.267 117.248 260.267 256v48.213c49.408 8.704 88.619 14.891 103.68 15.701 14.037-14.592 31.104-92.373 39.467-130.389 16.597-75.819 22.827-104.192 48.811-104.192 23.595 0 80.853 18.688 92.075 22.443 11.179 3.712 17.237 15.787 13.483 26.965zM213.333 822.272c0 52.395 42.667 95.061 95.061 95.061s95.061-42.667 95.061-95.061c0-52.437-42.624-95.061-95.061-95.061s-95.061 42.667-95.061 95.061zM597.333 192c0-113.664-101.675-213.333-217.6-213.333-115.243 0-209.067 95.701-209.067 213.333 0 107.861 85.973 195.2 167.125 210.56l25.045-192c0.768-5.888 3.925-11.136 8.704-14.592 4.821-3.456 10.752-4.693 16.64-3.584 61.824 12.373 140.757 27.605 209.152 40.107v-40.491z" />
<glyph unicode="&#xe935;" glyph-name="leaf" d="M953.728 889.771c-4.565 4.565-10.88 6.827-17.408 6.144-29.355-3.243-720.427-82.773-876.885-415.061-55.381-117.589-35.925-251.819 56.277-398.933l-24.149-24.149c-8.32-8.32-8.32-21.845 0-30.165 4.181-4.181 9.643-6.272 15.104-6.272s10.923 2.091 15.104 6.229l23.979 23.979c91.819-57.6 179.285-87.125 260.096-87.125 449.109 0 549.973 870.784 554.027 907.861 0.683 6.485-1.579 12.885-6.144 17.493zM405.803 7.125c-70.315 0-147.328 25.6-229.12 75.435l109.44 109.44h204.544c11.776 0 21.333 9.557 21.333 21.333s-9.557 21.333-21.333 21.333h-161.877l128 128h140.544c11.776 0 21.333 9.557 21.333 21.333s-9.557 21.333-21.333 21.333h-97.877l128 128h55.211c11.776 0 21.333 9.557 21.333 21.333s-9.557 21.333-21.333 21.333h-42.667v42.667c0 11.776-9.557 21.333-21.333 21.333s-21.333-9.557-21.333-21.333v-55.083l-128-128.043v97.792c0 11.776-9.557 21.333-21.333 21.333s-21.333-9.557-21.333-21.333v-140.459l-128-128.043v161.835c0 11.776-9.557 21.333-21.333 21.333s-21.333-9.557-21.333-21.333v-204.501l-109.227-109.269c-79.531 130.645-96.469 248.32-48.725 349.696 129.579 275.456 686.080 369.067 815.829 387.328-20.693-147.157-138.453-842.795-508.075-842.795z" />
<glyph unicode="&#xe936;" glyph-name="tennis-court" d="M873.6 410.283c-2.688 11.477-14.165 18.603-25.728 15.787-11.477-2.731-18.517-14.251-15.787-25.728l100.864-421.675h-126.208l-84.224 430.763c-2.261 11.605-13.483 19.285-25.003 16.853-11.563-2.261-19.115-13.44-16.853-25.003l24.235-123.947h-428.672l24.277 123.947c2.261 11.563-5.291 22.741-16.853 25.003-11.691 2.603-22.784-5.248-25.045-16.853l-84.352-430.763h-126.037l100.907 421.76c2.731 11.477-4.352 22.955-15.787 25.728-11.435 2.731-22.955-4.352-25.728-15.787l-107.179-448.085c-1.536-6.315-0.043-13.056 4.011-18.176s10.197-8.107 16.725-8.107h938.837c6.528 0 12.715 2.987 16.768 8.107s5.504 11.819 4.011 18.176l-107.179 448zM763.264-21.333h-251.264v256h201.216l50.048-256zM267.861 234.667h201.472v-256h-251.563l50.091 256zM199.979 704.597c11.563-2.987 22.955 4.309 25.728 15.787l47.147 196.949h85.248l-36.821-187.904c-2.261-11.563 5.248-22.784 16.811-25.003 1.408-0.299 2.773-0.427 4.139-0.427 9.984 0 18.901 7.040 20.907 17.237l13.355 68.096h228.309l13.355-68.309c2.005-10.197 10.923-17.237 20.907-17.237 1.365 0 2.731 0.128 4.096 0.427 11.563 2.261 19.115 13.44 16.853 25.003l-36.779 188.117h85.248l47.147-197.163c2.347-9.771 11.093-16.384 20.736-16.384 1.664 0 3.328 0.171 4.992 0.597 11.477 2.731 18.517 14.251 15.787 25.728l-51.072 213.547c-2.261 9.557-10.88 16.341-20.736 16.341h-469.333c-9.856 0-18.475-6.741-20.736-16.384l-51.072-213.333c-2.773-11.435 4.309-22.955 15.787-25.685zM401.579 917.333h67.755v-85.333h-84.48l16.725 85.333zM596.437 832h-84.437v85.333h67.755l16.683-85.333zM1002.667 661.333h-981.504c-11.776 0-21.333-9.557-21.333-21.333v-192c0-11.776 9.557-21.333 21.333-21.333s21.333 9.557 21.333 21.333v42.667h938.837v-42.667c0-11.776 9.557-21.333 21.333-21.333s21.333 9.557 21.333 21.333v192c0 11.776-9.557 21.333-21.333 21.333zM42.496 533.333v85.333h938.837v-85.333h-938.837z" />
<glyph unicode="&#xe937;" glyph-name="tennis" d="M941.525 862.165c-51.2 51.2-121.771 79.403-198.699 79.403-91.691 0-184.235-39.936-253.867-109.525-86.869-86.869-122.411-203.477-104.533-306.389l-0.597 0.043c-11.819-113.28-42.411-217.557-49.451-240.469l-116.949-116.992-12.075 12.075c-3.968 4.011-9.387 6.272-15.061 6.272s-11.093-2.261-15.104-6.229l-135.765-135.808c-24.96-24.96-24.96-65.536-0.043-90.453 12.032-12.075 28.117-18.731 45.312-18.731s33.28 6.656 45.269 18.688l135.765 135.765c8.32 8.32 8.32 21.845 0 30.165l-18.091 18.133 116.949 116.992c22.955 6.997 127.403 37.632 241.28 49.493 16.811-2.859 34.005-4.523 51.584-4.523 91.733 0 184.235 39.979 253.909 109.611 133.077 133.077 146.603 336.085 30.165 452.48zM99.797-15.829c-7.936-8.021-22.187-8.021-30.165 0.043-8.32 8.32-8.32 21.845 0 30.165l120.704 120.704 30.208-30.208-120.747-120.704zM962.304 569.899l-50.816 50.816 65.493 65.579c3.243-38.059-1.707-77.696-14.677-116.395zM505.643 396.075l104.021 104.064 60.587-60.629-85.248-85.376c-29.397 8.832-56.107 22.912-79.36 41.941zM438.101 671.787l51.627-51.627-66.219-66.475c-3.541 38.571 1.408 78.848 14.592 118.101zM760.533 711.339l-60.331-60.331-59.947 59.904 60.203 60.501 60.075-60.075zM730.581 801.621l85.291 85.675c29.269-8.789 55.808-22.827 78.891-41.771l-104.021-104.021-60.16 60.117zM790.699 681.173l60.416-60.416-60.245-60.416-60.501 60.501 60.331 60.331zM670.037 620.843l-60.331-60.331-59.733 59.691 60.203 60.501 59.861-59.861zM610.091 741.077l-75.136 75.179c22.144 19.584 46.293 35.925 71.851 48.853l63.488-63.488-60.203-60.544zM580.011 710.869l-60.203-60.501-63.915 63.915c12.715 25.216 29.013 49.408 48.896 71.851l75.221-75.264zM519.893 589.995l59.648-59.648-104.704-104.747c-19.029 23.125-32.768 49.408-41.387 77.568l86.443 86.827zM639.872 530.347l60.373 60.331 60.501-60.501-60.288-60.416-60.587 60.587zM790.912 499.968l74.496-74.496c-22.144-19.627-46.293-35.968-71.851-48.896l-62.976 62.976 60.331 60.416zM821.035 530.176l60.288 60.373 63.147-63.104c-12.715-25.259-29.013-49.408-48.853-71.851l-74.581 74.581zM967.339 737.109l-86.059-86.229-60.416 60.416 104.704 104.661c19.328-23.381 33.152-50.133 41.771-78.848zM765.184 896.896l-64.768-65.067-51.243 51.243c30.549 10.283 62.208 15.872 93.696 15.872 7.637-0.043 14.848-1.451 22.315-2.048zM384.683 305.28c8.533 31.061 20.309 78.72 29.952 133.717 11.776-21.461 26.283-41.6 44.203-59.563 17.621-17.621 37.675-32.299 59.349-44.288-54.955-9.6-102.528-21.376-133.504-29.867zM635.904 344.661l64.555 64.683 50.731-50.731c-30.592-10.283-62.208-15.872-93.739-15.872-7.339-0.043-14.336 1.323-21.547 1.92zM186.667 661.973c70.571 0 128 57.429 128 128s-57.429 128-128 128-128-57.429-128-128 57.429-128 128-128zM186.667 875.307c47.061 0 85.333-38.272 85.333-85.333s-38.272-85.333-85.333-85.333-85.333 38.272-85.333 85.333 38.272 85.333 85.333 85.333z" />
<glyph unicode="&#xe938;" glyph-name="soccer-court" d="M960 789.205h-938.667c-11.776 0-21.333-9.557-21.333-21.333v-640c0-11.776 9.557-21.333 21.333-21.333h938.667c11.776 0 21.333 9.557 21.333 21.333v640c0 11.776-9.557 21.333-21.333 21.333zM469.333 343.381c-48.64 9.856-85.333 52.949-85.333 104.491s36.693 94.635 85.333 104.491v-208.981zM512 552.363c48.64-9.856 85.333-52.949 85.333-104.491s-36.693-94.635-85.333-104.491v208.981zM42.667 618.539h128v-341.333h-128v341.333zM42.667 234.539h149.333c11.776 0 21.333 9.557 21.333 21.333v384c0 11.776-9.557 21.333-21.333 21.333h-149.333v85.333h426.667v-151.509c-72.192-10.453-128-72.107-128-147.157s55.808-136.704 128-147.157v-151.509h-426.667v85.333zM512 149.205v151.509c72.192 10.453 128 72.107 128 147.157s-55.808 136.704-128 147.157v151.509h426.667v-85.333h-149.333c-11.776 0-21.333-9.557-21.333-21.333v-384c0-11.776 9.557-21.333 21.333-21.333h149.333v-85.333h-426.667zM938.667 277.205h-128v341.333h128v-341.333z" />
<glyph unicode="&#xe939;" glyph-name="skateboard" d="M938.069 542.635l15.061 15.104c44.331 44.288 68.736 103.253 68.736 165.931 0 62.72-24.405 121.643-68.736 165.973s-103.253 68.736-165.931 68.736c-62.677 0-121.6-24.405-165.931-68.736l-15.104-15.104-15.104 15.104c-8.32 8.32-21.845 8.32-30.165 0l-120.661-120.661c-4.011-4.011-6.229-9.429-6.229-15.104s2.261-11.093 6.229-15.104l15.104-15.104-211.2-211.243-15.104 15.104c-8.32 8.32-21.845 8.32-30.165 0l-120.661-120.661c-8.32-8.32-8.32-21.845 0-30.165l15.104-15.104-15.104-15.104c-44.331-44.288-68.736-103.253-68.736-165.931 0-62.72 24.405-121.643 68.736-165.973s103.253-68.736 165.931-68.736c62.677 0 121.6 24.405 165.931 68.736l15.104 15.104 15.104-15.104c4.181-4.181 9.643-6.229 15.104-6.229s10.923 2.091 15.104 6.229l120.661 120.661c3.925 4.139 6.187 9.557 6.187 15.189s-2.261 11.093-6.229 15.104l-15.104 15.061 211.115 211.285 15.147-15.147c4.181-4.181 9.643-6.229 15.104-6.229s10.923 2.091 15.104 6.229l120.661 120.661c4.011 4.011 6.229 9.429 6.229 15.104s-2.261 11.093-6.229 15.104l-15.061 15.019zM651.392 859.477c36.267 36.309 84.48 56.235 135.765 56.235s99.499-19.968 135.765-56.235 56.235-84.48 56.235-135.808-19.968-99.499-56.277-135.808l-15.019-15.104-45.312 45.312c-8.021 8.021-22.187 8.021-30.165 0l-45.312-45.312-150.784 150.955 45.269 45.269c4.011 4.011 6.229 9.429 6.229 15.104s-2.261 11.093-6.229 15.104l-45.227 45.184 15.061 15.104zM576 844.373l60.373-60.331-90.539-90.496-60.331 60.331 90.496 90.496zM213.931 482.347l60.373-60.331-45.269-45.269c0 0 0 0 0-0.043l-45.269-45.269-60.331 60.373 90.496 90.539zM379.904 44.885c-36.267-36.309-84.48-56.235-135.765-56.235s-99.499 19.968-135.765 56.235-56.235 84.48-56.235 135.808 19.968 99.499 56.235 135.765l15.061 15.104 45.269-45.312c4.011-4.011 9.429-6.229 15.104-6.229s11.093 2.261 15.104 6.229l45.269 45.312 150.827-150.869-45.269-45.269c-4.011-4.011-6.229-9.429-6.229-15.104s2.261-11.093 6.229-15.104l45.269-45.269-15.104-15.061zM455.296 59.947l-60.373 60.331 90.539 90.496 60.331-60.331-90.496-90.496zM545.792 210.773l-45.269 45.269c-8.32 8.32-21.845 8.32-30.165 0l-45.227-45.269-150.827 150.869 45.269 45.269c4.011 4.011 6.229 9.429 6.229 15.104s-2.261 11.093-6.229 15.104l-45.269 45.269 211.2 211.2 45.269-45.269c4.181-4.181 9.643-6.229 15.104-6.229s10.923 2.091 15.104 6.229l45.269 45.269 150.784-150.955-45.227-45.227c-4.011-4.011-6.229-9.429-6.229-15.104s2.261-11.093 6.229-15.104l45.184-45.141-211.2-211.285zM817.365 422.016l-60.373 60.288 90.539 90.539 60.331-60.331-90.496-90.496z" />
<glyph unicode="&#xe940;" glyph-name="rollerblade" d="M213.077 427.136l-28.544-155.733c-4.779-19.243-0.555-39.253 11.648-54.912 12.245-15.616 30.592-24.576 50.475-24.576h459.861c69.205 0 125.44 56.277 125.44 125.44 0 62.848-46.976 116.309-107.904 124.203l-92.416 17.792c-31.744 4.139-55.68 31.36-55.765 61.269l37.845 368.725c1.835 17.963-4.011 36.011-16.128 49.408-12.117 13.44-29.44 21.163-47.531 21.163h-331.52c-18.261-0.043-35.712-7.893-47.872-21.547-12.117-13.611-17.835-31.787-15.701-50.048l58.112-461.184zM202.581 909.995c4.139 4.651 9.771 7.211 15.957 7.211h331.563c6.101 0 11.733-2.517 15.829-7.083 4.096-4.48 6.016-10.368 5.333-16.469l-10.667-104.448h-112.597c-11.776 0-21.333-9.557-21.333-21.333s9.557-21.333 21.333-21.333h108.245l-4.395-42.667h-103.851c-11.776 0-21.333-9.557-21.333-21.333s9.557-21.333 21.333-21.333h99.499l-4.395-42.667h-137.771c-11.776 0-21.333-9.557-21.333-21.333s9.557-21.333 21.333-21.333h133.419l-4.395-42.667h-171.691c-11.776 0-21.333-9.557-21.333-21.333s9.557-21.333 21.333-21.333h176.043c12.245-38.443 45.355-68.053 86.144-73.344l92.416-17.792c41.045-5.333 72.021-40.619 72.021-82.091 0-45.653-37.163-82.773-82.773-82.773h-459.861c-6.613 0-12.757 2.987-16.853 8.192-4.053 5.205-5.461 11.861-3.584 19.627l29.397 160.341c0.384 2.133 0.469 4.352 0.213 6.528l-58.496 464.256c-0.725 6.059 1.152 11.947 5.248 16.512zM938.667 63.872h-44.8c-9.899 48.64-52.992 85.333-104.533 85.333s-94.592-36.693-104.533-85.333h-46.976c-9.899 48.64-52.992 85.333-104.533 85.333s-94.592-36.693-104.533-85.333h-46.933c-9.899 48.64-52.992 85.333-104.533 85.333s-94.592-36.693-104.533-85.333h-43.904c-11.776 0-21.333-9.557-21.333-21.333s9.557-21.333 21.333-21.333h43.947c9.899-48.64 52.992-85.333 104.533-85.333s94.592 36.693 104.533 85.333h46.976c9.899-48.64 52.992-85.333 104.533-85.333s94.592 36.693 104.533 85.333h46.976c9.899-48.64 52.992-85.333 104.533-85.333s94.592 36.693 104.533 85.333h44.715c11.776 0 21.333 9.557 21.333 21.333s-9.557 21.333-21.333 21.333zM789.333 106.539c27.776 0 51.243-17.877 60.075-42.667h-120.107c8.789 24.789 32.256 42.667 60.032 42.667zM533.333 106.539c27.776 0 51.243-17.877 60.075-42.667h-120.107c8.789 24.789 32.256 42.667 60.032 42.667zM277.333 106.539c27.776 0 51.243-17.877 60.075-42.667h-120.149c8.832 24.789 32.299 42.667 60.075 42.667zM277.333-21.461c-27.776 0-51.243 17.877-60.075 42.667h120.107c-8.832-24.789-32.299-42.667-60.032-42.667zM533.333-21.461c-27.776 0-51.243 17.877-60.075 42.667h120.107c-8.832-24.789-32.299-42.667-60.032-42.667zM789.333-21.461c-27.776 0-51.243 17.877-60.075 42.667h120.107c-8.832-24.789-32.299-42.667-60.032-42.667z" />
<glyph unicode="&#xe941;" glyph-name="pingpong" d="M234.411 682.539c70.571 0 128 57.429 128 128s-57.429 128-128 128-128-57.429-128-128 57.429-128 128-128zM234.411 895.872c47.061 0 85.333-38.272 85.333-85.333s-38.272-85.333-85.333-85.333-85.333 38.272-85.333 85.333 38.272 85.333 85.333 85.333zM905.259 814.379c-128.725 128.725-328.917 155.776-486.997 65.877-10.24-5.845-13.824-18.859-7.979-29.099s18.859-13.739 29.099-8.021c141.312 80.512 320.555 56.235 435.712-58.923 68.48-68.523 106.24-159.531 106.24-256.427s-37.717-187.947-106.24-256.469c-55.509-55.509-126.336-89.515-200.661-101.035l-413.867 413.824c1.621 10.411 3.584 20.821 6.101 31.104 2.816 11.435-4.181 22.997-15.616 25.771-11.392 2.816-22.955-4.139-25.771-15.616-23.211-94.293-12.16-192.683 31.061-278.869l-195.84-195.84c-20.139-20.181-31.232-46.976-31.232-75.435 0-28.501 11.093-55.296 31.232-75.435l30.165-30.165c20.139-20.181 46.933-31.232 75.435-31.232s55.296 11.093 75.435 31.232l195.84 195.797c154.709-77.269 344.917-47.275 467.883 75.691 76.544 76.587 118.741 178.389 118.741 286.677 0 108.245-42.197 210.048-118.741 286.592zM443.691 210.347c-8.363 4.608-18.688 3.157-25.387-3.584l-206.976-206.933c-24.149-24.149-66.261-24.149-90.496 0l-30.165 30.165c-12.117 12.075-18.731 28.117-18.731 45.269 0 17.067 6.656 33.152 18.731 45.269l206.933 206.976c6.741 6.699 8.192 17.067 3.584 25.387-29.867 54.144-44.757 114.261-44.757 175.104l361.899-361.856c-59.819-0.128-119.979 14.080-174.635 44.203z" />
<glyph unicode="&#xe942;" glyph-name="board-game" d="M960 917.333h-938.667c-11.776 0-21.333-9.557-21.333-21.333v-938.667c0-11.776 9.557-21.333 21.333-21.333h938.667c11.776 0 21.333 9.557 21.333 21.333v938.667c0 11.776-9.557 21.333-21.333 21.333zM938.667 448h-426.667v426.667h426.667v-426.667zM469.333 874.667v-426.667h-426.667v426.667h426.667zM42.667 405.333h426.667v-426.667h-426.667v426.667zM512-21.333v426.667h426.667v-426.667h-426.667zM725.333 490.667c94.123 0 170.667 76.544 170.667 170.667s-76.544 170.667-170.667 170.667-170.667-76.544-170.667-170.667 76.544-170.667 170.667-170.667zM725.333 789.333c70.571 0 128-57.429 128-128s-57.429-128-128-128-128 57.429-128 128 57.429 128 128 128zM256 362.667c-94.123 0-170.667-76.544-170.667-170.667s76.544-170.667 170.667-170.667 170.667 76.544 170.667 170.667-76.544 170.667-170.667 170.667zM256 64c-70.571 0-128 57.429-128 128s57.429 128 128 128 128-57.429 128-128-57.429-128-128-128zM85.333 661.333c0-19.029 3.797-37.333 9.728-54.827 0.341-1.451 0.64-2.816 1.28-4.224 8.405-22.784 21.291-43.904 38.997-61.611 17.536-17.536 38.357-30.336 60.928-38.784 2.176-1.067 4.395-1.707 6.699-2.048 16.981-5.547 34.645-9.173 53.035-9.173 12.16 0 24.064 1.451 35.712 3.925 3.584 0.043 7.040 1.28 10.283 3.115 27.861 7.808 53.632 21.931 74.667 42.965 32.256 32.213 50.005 75.093 50.005 120.661 0 19.499-3.883 38.315-10.155 56.192-0.213 0.768-0.341 1.579-0.683 2.261-8.405 23.040-21.291 44.331-39.168 62.208-16.683 16.725-36.693 28.928-58.197 36.949-4.267 3.029-9.131 4.437-14.123 4.011-28.971 8.149-59.605 9.045-88.875 2.261-2.347-0.299-4.608-0.896-6.741-1.92-27.179-7.467-52.821-20.693-73.387-41.301-21.248-21.205-35.456-47.275-43.179-75.435-0.555-1.152-0.768-2.304-1.067-3.499-3.413-13.568-5.76-27.392-5.76-41.728zM329.941 765.397l-178.048-178.005c-4.309 6.016-7.893 12.459-11.093 19.115l170.027 169.984c6.656-3.157 13.056-6.741 19.115-11.093zM371.2 716.16l-169.557-169.557c-6.784 3.029-13.269 6.528-19.413 10.752l177.92 177.92c4.267-6.016 7.851-12.459 11.051-19.115zM250.453 535.083l132.907 132.907c0.085-2.219 0.64-4.395 0.64-6.656 0-8.619-0.896-17.067-2.517-25.344l-98.475-98.475c-10.709-2.176-21.632-2.859-32.555-2.432zM256 789.333c2.261 0 4.437-0.555 6.741-0.683l-134.059-133.973c-0.128 2.219-0.683 4.395-0.683 6.656 0 8.619 0.896 17.067 2.517 25.344l100.181 100.181c8.235 1.579 16.683 2.475 25.301 2.475zM885.973 247.723c-0.256 0.939-0.427 1.92-0.853 2.859-8.235 22.613-20.992 43.947-39.125 62.080-16.725 16.725-36.693 28.928-58.197 36.949-4.267 3.029-9.131 4.437-14.123 4.011-28.971 8.107-59.563 9.045-88.875 2.261-2.347-0.299-4.565-0.896-6.741-1.92-27.179-7.467-52.821-20.693-73.387-41.301-21.547-21.547-35.328-47.616-42.923-75.093-0.896-1.749-1.323-3.627-1.664-5.589-7.467-31.104-6.016-63.616 4.181-94.123 0.341-1.707 0.725-3.413 1.493-5.035 8.235-22.4 20.949-43.563 38.912-61.525 17.579-17.579 38.443-30.379 61.099-38.827 1.92-0.939 3.968-1.493 6.101-1.877 17.067-5.632 34.901-9.301 53.461-9.301 12.288 0 24.277 1.493 36.011 4.053 3.499 0.043 6.827 1.237 9.941 2.987 27.861 7.851 53.675 21.973 74.709 43.008 21.675 21.675 35.541 47.915 43.093 75.563 0.128 0.341 0.171 0.683 0.299 0.981 8.789 32.853 7.68 67.541-3.413 99.84zM651.563 87.979l177.835 177.877c4.309-6.101 7.893-12.501 11.051-19.115l-169.515-169.557c-6.784 3.072-13.269 6.571-19.371 10.795zM610.219 137.216l169.984 169.941c6.656-3.157 13.056-6.741 19.072-11.093l-178.005-178.005c-4.352 6.101-7.936 12.544-11.051 19.157zM725.333 320c2.261 0 4.437-0.555 6.741-0.683l-134.016-133.973c-0.555 10.795-0.085 21.589 2.048 32.213l99.925 99.925c8.235 1.621 16.683 2.517 25.301 2.517zM719.744 65.707l132.864 132.907c0.555-10.795 0.128-21.589-2.048-32.213l-98.261-98.261c-10.709-2.176-21.632-2.901-32.555-2.432z" />
<glyph unicode="&#xe943;" glyph-name="martial-art" d="M1017.728 654.976l-234.624 234.667c-1.621 1.621-3.499 2.944-5.547 4.011l-128.085 64c-0.213 0.128-0.427 0.085-0.64 0.171-0.341 0.171-0.683 0.384-1.067 0.512-0.128 0.043-0.256 0.213-0.384 0.256-0.939 0.384-1.963 0.256-2.944 0.469-1.323 0.299-2.603 0.768-3.925 0.768-0.213 0-0.384 0.128-0.597 0.128h-256c-0.171 0-0.341-0.128-0.512-0.128-3.029-0.085-6.144-0.683-9.003-2.133l-0.341-0.256-127.573-63.829c-2.048-1.024-3.925-2.347-5.547-3.968l-234.667-234.667c-8.32-8.32-8.32-21.845 0-30.165l127.957-128c7.808-7.893 20.267-8.405 28.757-1.28l98.944 82.475 36.395-236.501-66.944-380.544c-0.085-0.597 0.128-1.109 0.085-1.664-0.171-1.792-0.043-3.499 0.213-5.205 0.171-1.152 0.256-2.261 0.64-3.371 0.597-1.835 1.579-3.456 2.645-5.077 0.427-0.683 0.555-1.451 1.067-2.091 0.128-0.171 0.341-0.256 0.512-0.384 1.365-1.536 3.072-2.645 4.864-3.755 0.811-0.512 1.451-1.195 2.304-1.579 0.085-0.043 0.128-0.128 0.256-0.171 2.731-1.195 5.589-1.749 8.448-1.749h515.541c6.272 0 12.245 2.731 16.256 7.552 4.053 4.779 5.803 11.136 4.779 17.28l-63.445 380.587 36.437 236.672 99.029-82.517c8.448-7.083 20.907-6.571 28.715 1.28l128 128c8.32 8.363 8.32 21.845 0 30.208zM609.237 917.205l-96.896-260.309-97.621 260.309h194.517zM284.8 638.507c-7.211 2.731-15.317 1.323-21.205-3.584l-112.981-94.165-99.072 99.115 217.131 217.131 103.637 51.84 117.333-312.96-86.827-233.344h-64.555l-39.893 259.243c-1.195 7.595-6.357 13.995-13.568 16.725zM337.835 319.872h47.36l-80.085-186.155 32.725 186.155zM742.741-21.461h-457.941l146.816 341.333h50.688l-54.613-163.925c-3.712-11.179 2.304-23.253 13.483-27.008 11.221-3.755 23.253 2.389 26.965 13.483l43.776 131.285 43.776-131.285c2.987-8.917 11.307-14.592 20.224-14.592 2.219 0 4.48 0.341 6.741 1.067 11.179 3.755 17.195 15.829 13.483 27.008l-54.613 163.925h144.341l56.875-341.291zM873.344 540.757l-113.067 94.165c-5.931 4.907-14.037 6.272-21.205 3.584-7.211-2.688-12.373-9.131-13.525-16.725l-39.893-259.243h-237.312l203.349 546.304 103.723-51.84 217.088-217.131-99.157-99.115z" />
<glyph unicode="&#xe944;" glyph-name="fencing-2" d="M1002.667 256c-105.856 0-192 86.144-192 192v213.333c0 164.651-133.973 298.667-298.667 298.667s-298.667-134.016-298.667-298.667v-213.333c0-105.856-86.144-192-192-192-11.776 0-21.333-9.557-21.333-21.333 0-117.632 95.701-213.333 213.333-213.333 101.205 0 154.411 55.253 167.467 117.931 2.048-3.243 3.2-7.125 3.2-11.264v-64c0-70.571 57.429-128 128-128s128 57.429 128 128v64c0 4.139 1.152 8.021 3.2 11.264 13.056-62.677 66.261-117.931 167.467-117.931 117.632 0 213.333 95.701 213.333 213.333 0 11.776-9.557 21.333-21.333 21.333zM810.667 64c-94.379 0-128 55.083-128 106.667 0 11.776-9.557 21.333-21.333 21.333-35.285 0-64-28.715-64-64v-64c0-47.061-38.272-85.333-85.333-85.333s-85.333 38.272-85.333 85.333v64c0 35.285-28.715 64-64 64-11.776 0-21.333-9.557-21.333-21.333 0-51.584-33.621-106.667-128-106.667-87.253 0-159.403 65.792-169.472 150.4 118.869 11.392 212.139 111.829 212.139 233.6v213.333c0 141.184 114.816 256 256 256s256-114.816 256-256v-213.333c0-121.771 93.269-222.208 212.139-233.6-10.069-84.608-82.219-150.4-169.472-150.4zM722.475 640c0 0.555-0.256 0.981-0.299 1.493-5.077 53.077-17.323 96.384-35.541 131.413-0.981 4.139-2.901 7.851-5.931 10.624-35.328 59.904-91.136 91.136-168.704 91.136s-133.376-31.232-168.704-91.136c-3.029-2.773-4.907-6.485-5.931-10.624-17.963-34.603-30.251-77.099-35.456-129.365-0.213-1.195-0.683-2.304-0.683-3.541 0-0.768 0.341-1.408 0.427-2.176-1.792-19.584-2.987-39.851-2.987-61.824 0-76.672 20.907-146.475 54.955-199.424 1.152-3.029 2.859-5.76 5.205-7.979 38.784-56.149 93.099-91.264 153.173-91.264s114.347 35.072 153.173 91.264c2.347 2.261 4.096 4.992 5.248 8.064 34.005 52.907 54.912 122.667 54.912 199.339 0 22.4-1.195 43.179-3.029 63.104 0 0.299 0.171 0.555 0.171 0.896zM638.848 405.333h-253.696c-14.763 24.661-26.325 53.504-33.877 85.333h321.408c-7.509-31.829-19.115-60.672-33.835-85.333zM343.936 533.333c-1.621 13.909-2.603 28.075-2.603 42.667 0 15.104 0.469 29.269 1.28 42.667h338.731c0.853-13.397 1.323-27.563 1.323-42.667 0-14.592-0.981-28.757-2.603-42.667h-336.128zM370.688 746.667h282.581c10.453-22.272 18.688-50.261 23.68-85.333h-329.941c5.035 35.072 13.227 63.061 23.68 85.333zM512 832c36.864 0 79.787-6.784 113.408-42.667h-226.816c33.621 35.883 76.544 42.667 113.408 42.667zM417.877 362.667h188.245c-27.008-26.923-59.349-42.667-94.123-42.667s-67.115 15.744-94.123 42.667z" />
<glyph unicode="&#xe945;" glyph-name="iceskate" d="M896 106.539h-128v42.667h21.333c58.795 0 106.667 47.829 106.667 106.667 0 16.555-2.773 32.384-6.741 47.701 0 0.085 0 0.171 0 0.299-0.213 0.811-0.597 1.451-0.811 2.261-7.509 27.477-20.864 52.309-38.827 73.429-2.304 2.688-4.352 5.632-6.741 8.192-4.267 4.437-8.917 8.363-13.568 12.416-4.096 3.584-8.149 7.125-12.544 10.325-4.48 3.285-9.088 6.229-13.867 9.088-5.291 3.243-10.709 6.187-16.341 8.917-4.565 2.176-9.131 4.309-13.909 6.144-6.784 2.645-13.739 4.608-20.821 6.443-4.139 1.067-8.107 2.432-12.373 3.2-11.563 2.219-23.381 3.584-35.499 3.584h-42.667c-82.347 0-149.333 66.987-149.333 149.333v320c0 6.997-3.456 13.525-9.173 17.536s-13.056 4.864-19.627 2.432l-341.333-128c-8.32-3.115-13.824-11.093-13.824-19.968v-533.333c0-58.837 47.872-106.667 106.667-106.667h21.333v-42.667h-128c-47.061 0-85.333-38.272-85.333-85.333s38.272-85.333 85.333-85.333h768c47.061 0 85.333 38.272 85.333 85.333s-38.272 85.333-85.333 85.333zM661.333 405.205h42.667c9.088 0 17.92-1.109 26.581-2.688 2.688-0.512 5.376-1.067 8.021-1.749 6.144-1.493 12.16-3.371 17.963-5.589 2.517-0.981 5.12-1.749 7.595-2.816 7.211-3.2 14.080-6.997 20.608-11.264 3.115-2.048 6.016-4.437 8.96-6.656 3.499-2.645 6.912-5.419 10.112-8.32 3.328-3.029 6.571-6.187 9.643-9.515 2.048-2.261 3.84-4.651 5.76-6.997 7.339-9.131 13.909-18.901 18.987-29.696h-304.896c-75.008 0-136.704 55.851-147.2 128h155.989c32.853-26.325 73.941-42.709 119.211-42.709zM469.333 618.539h-85.333v85.333h85.333v-85.333zM384 575.872h87.467c3.541-31.189 13.653-60.459 30.336-85.333h-117.803v85.333zM170.667 255.872v518.528l298.667 112v-139.861h-106.667c-11.776 0-21.333-9.557-21.333-21.333v-256c0-105.856 86.144-192 192-192h317.867c0.981-7.040 2.133-14.037 2.133-21.333 0-35.285-28.715-64-64-64h-554.667c-35.328 0-64 28.715-64 64zM384 149.205h256v-42.667h-256v42.667zM896-21.461h-768c-23.509 0-42.667 19.115-42.667 42.667s19.157 42.667 42.667 42.667h149.333c11.776 0 21.333 9.557 21.333 21.333v64h42.667v-64c0-11.776 9.557-21.333 21.333-21.333h298.667c11.776 0 21.333 9.557 21.333 21.333v64h42.667v-64c0-11.776 9.557-21.333 21.333-21.333h149.333c23.509 0 42.667-19.115 42.667-42.667s-19.157-42.667-42.667-42.667z" />
<glyph unicode="&#xe946;" glyph-name="hockey" d="M920.448 929.621c-42.965 12.928-92.587-17.067-105.899-61.611l-237.312-676.139h-257.237c-56.021 0-85.333-53.675-85.333-106.667s29.312-106.667 85.333-106.667h320c39.467 0 71.595 36.181 81.579 69.675l256.171 777.813c13.312 44.416-11.819 89.941-57.301 103.595zM769.749 611.499l55.637-111.701-66.773-202.795-57.685 118.315 68.821 196.181zM277.333 85.205c0 22.144 8.917 64 42.667 64h64.384l74.709-128h-139.093c-33.792 0-42.667 41.899-42.667 64zM680.832 60.971c-5.717-19.2-23.509-39.765-40.875-39.765h-131.499l-74.752 128h158.592c9.045 0 17.109 5.717 20.139 14.251l68.523 195.243 58.411-119.893-58.539-177.835zM937.003 838.827l-92.672-281.429-54.869 110.251 65.664 187.136c7.125 23.723 32.384 39.979 53.12 33.963 23.253-6.997 35.285-28.203 28.757-49.92zM362.667 447.872c0 58.837-47.872 106.667-106.667 106.667s-106.667-47.829-106.667-106.667 47.872-106.667 106.667-106.667 106.667 47.829 106.667 106.667zM192 447.872c0 35.285 28.715 64 64 64s64-28.715 64-64-28.715-64-64-64-64 28.715-64 64z" />
<glyph unicode="&#xe947;" glyph-name="fencing-1" d="M1017.728 953.643c-7.979 8.021-20.693 8.32-29.099 0.981l-691.371-603.008c-23.381 9.131-48.299 14.293-73.984 14.293-61.269 0-121.984-26.965-170.965-75.947-4.011-4.011-6.229-9.429-6.229-15.104s2.261-11.093 6.229-15.104l90.539-90.539-105.6-105.643c-24.96-24.96-24.96-65.536 0-90.496 12.075-12.075 28.16-18.688 45.227-18.688 0.043 0 0.085 0 0.128 0 17.067 0.043 33.109 6.699 45.141 18.773l105.643 105.557 90.496-90.453c4.181-4.181 9.643-6.229 15.104-6.229s10.923 2.091 15.104 6.229c46.805 46.763 73.771 104.789 75.861 163.371 1.024 28.416-3.84 56.064-13.824 81.749l602.581 691.115c7.381 8.448 6.955 21.205-0.981 29.141zM97.493 3.328c-4.011-4.053-9.344-6.229-15.019-6.229 0 0-0.043 0-0.043 0-5.717 0-11.051 2.219-15.061 6.229-8.32 8.32-8.32 21.845 0 30.165l105.643 105.643 30.165-30.165-105.685-105.643zM338.261 34.176l-240.085 240.085c75.093 63.275 178.048 63.232 240.725 0.64 32.768-32.811 49.92-75.989 48.256-121.685-1.451-41.557-18.688-83.157-48.896-119.040zM394.624 273.835c-7.467 11.008-15.872 21.547-25.515 31.189s-20.053 18.133-31.061 25.557l443.221 386.56-386.645-443.307z" />
<glyph unicode="&#xe948;" glyph-name="dumbbell-2" d="M990.421 775.424l-150.869 150.869c-32.256 32.256-88.405 32.256-120.619 0-10.795-10.795-18.005-24.107-21.845-38.443l-8.363 8.32c-32.299 32.171-88.363 32.213-120.704-0.043-11.008-11.051-18.005-24.448-21.717-38.528l-8.405 8.363c-32.213 32.256-88.405 32.256-120.747 0-33.237-33.28-33.237-87.467 0-120.704l135.765-135.765-211.115-211.2-135.765 135.808c-32.213 32.128-88.448 32.171-120.704-0.043-33.237-33.237-33.237-87.424 0-120.661l8.875-8.875c-14.464-3.541-28.16-10.411-39.040-21.291-33.237-33.237-33.237-87.381 0-120.661l8.832-8.917c-14.464-3.541-28.16-10.411-39.040-21.291-16.085-16.128-24.96-37.547-24.96-60.331 0-22.827 8.875-44.245 25.003-60.331l150.869-150.869c16.085-16.085 37.461-24.96 60.288-24.96s44.288 8.875 60.459 25.003c11.008 11.051 18.005 24.448 21.717 38.528l8.405-8.363c16.128-16.128 37.547-25.045 60.373-25.045 22.784 0 44.203 8.875 60.288 25.003 10.795 10.795 18.005 24.064 21.845 38.485l8.363-8.363c16.128-16.085 37.547-24.917 60.373-24.917s44.245 8.875 60.373 25.003 25.003 37.547 25.003 60.331c0 22.784-8.917 44.245-25.045 60.331l-135.765 135.765 211.115 211.2 135.808-135.808c16.128-16.128 37.547-25.003 60.373-25.003s44.245 8.875 60.288 25.003c16.128 16.128 25.045 37.547 25.045 60.331s-8.875 44.203-25.003 60.331l-8.32 8.32c14.379 3.797 27.691 11.051 38.485 21.845 16.128 16.128 25.003 37.547 25.003 60.331 0 22.827-8.875 44.245-25.003 60.373l-8.448 8.363c14.421 3.84 27.733 11.051 38.571 21.845 33.237 33.237 33.237 87.424-0.043 120.661zM266.411-8.96c-16.213-16.043-44.288-16.128-60.416-0.043l-150.912 150.869c-7.979 8.064-12.416 18.773-12.416 30.165s4.437 22.101 12.459 30.165c8.064 8.064 18.816 12.501 30.208 12.501s22.101-4.437 30.123-12.501l150.912-150.869c16.64-16.64 16.64-43.648 0.043-60.288zM429.696 51.371c0-11.435-4.437-22.144-12.501-30.208-16.085-16.128-44.203-16.085-60.288 0.043l-271.573 271.488c-16.64 16.64-16.64 43.691 0 60.331 8.064 8.021 18.773 12.501 30.208 12.501s22.101-4.437 30.123-12.501l271.701-271.659c7.893-8.064 12.331-18.688 12.331-29.995zM580.608 81.536c0-11.392-4.437-22.101-12.501-30.165-16.128-16.171-44.288-16.128-60.416-0.043l-392.192 392.192c-16.64 16.64-16.597 43.691 0 60.331 8.107 8.021 18.816 12.501 30.251 12.501 11.392 0 22.101-4.437 30.165-12.459l392.235-392.192c7.979-8.064 12.459-18.773 12.459-30.165zM432.299 307.797l-60.331 60.331 211.115 211.2 60.331-60.331-211.115-211.2zM899.883 383.147c-16.043-16.128-44.203-16-60.331 0.043l-392.192 392.192c-16.64 16.64-16.64 43.691 0 60.373 8.064 8.021 18.816 12.501 30.208 12.501 11.435 0 22.101-4.437 30.165-12.501l331.819-331.904c0-0.043 0.043-0.043 0.043-0.043l60.288-60.288c8.064-8.064 12.501-18.773 12.501-30.165s-4.395-22.059-12.501-30.208zM930.048 534.059c-16.085-16.171-44.117-16.085-60.288-0.043l-271.488 271.616c-16.64 16.64-16.64 43.691-0.043 60.331 8.064 8.021 18.773 12.501 30.208 12.501s22.144-4.437 30.208-12.501l271.445-271.531c8.064-8.064 12.501-18.773 12.501-30.208-0.043-11.392-4.48-22.101-12.544-30.165zM960.256 684.928c-16.043-16.085-44.16-16.085-60.331-0.043l-150.869 150.912c-8.064 8.064-12.501 18.773-12.501 30.165s4.437 22.101 12.501 30.165c8.064 8.021 18.731 12.501 30.123 12.501s22.101-4.437 30.165-12.501l150.869-150.869c16.683-16.64 16.683-43.733 0.043-60.331z" />
<glyph unicode="&#xe949;" glyph-name="dumbbell-1" d="M1002.667 255.872h-21.333v85.333c0 35.285-28.715 64-64 64h-64v64c0 35.285-28.715 64-64 64h-128c-35.285 0-64-28.715-64-64v-234.667h-170.667v234.667c0 35.285-28.715 64-64 64h-128c-35.285 0-64-28.715-64-64v-64h-64c-35.285 0-64-28.715-64-64v-85.333h-21.333c-11.776 0-21.333-9.557-21.333-21.333s9.557-21.333 21.333-21.333h21.333v-85.333c0-35.285 28.715-64 64-64h64v-64c0-35.285 28.715-64 64-64h128c35.285 0 64 28.715 64 64v192h170.667v-192c0-35.285 28.715-64 64-64h128c35.285 0 64 28.715 64 64v64h64c35.285 0 64 28.715 64 64v85.333h21.333c11.776 0 21.333 9.557 21.333 21.333s-9.557 21.333-21.333 21.333zM106.667 106.539c-11.776 0-21.333 9.6-21.333 21.333v213.333c0 11.733 9.557 21.333 21.333 21.333h64v-256h-64zM384-0.128c0-11.733-9.557-21.333-21.333-21.333h-128c-11.776 0-21.333 9.6-21.333 21.333v469.333c0 11.733 9.557 21.333 21.333 21.333h128c11.776 0 21.333-9.6 21.333-21.333v-469.333zM810.667-0.128c0-11.733-9.557-21.333-21.333-21.333h-128c-11.776 0-21.333 9.6-21.333 21.333v469.333c0 11.733 9.557 21.333 21.333 21.333h128c11.776 0 21.333-9.6 21.333-21.333v-469.333zM938.667 127.872c0-11.733-9.557-21.333-21.333-21.333h-64v256h64c11.776 0 21.333-9.6 21.333-21.333v-213.333z" />
<glyph unicode="&#xe950;" glyph-name="boxing" d="M902.656 866.56c-53.973 59.307-130.859 93.355-210.944 93.355h-286.379c-105.856 0-192-86.144-192-192v-55.979c-21.205 20.395-49.451 32.64-82.901 34.389-34.901 2.219-65.067-8.448-87.595-29.824-27.648-26.24-42.837-68.608-42.837-119.296 0-268.373 159.147-342.229 213.333-359.637v-195.029c0-58.837 47.872-106.667 106.667-106.667h426.667c58.795 0 106.667 47.829 106.667 106.667v284.757c28.117 23.083 102.101 103.339 122.581 319.445 7.595 80.128-19.115 160.256-73.259 219.819zM554.667 234.539v-170.667h-298.667v170.667h298.667zM933.419 650.752c-22.528-237.483-111.317-293.717-112-294.101-6.656-3.755-10.752-10.88-10.752-18.56v-295.552c0-35.285-28.715-64-64-64h-426.667c-27.776 0-51.243 17.877-60.075 42.667h316.075c11.776 0 21.333 9.557 21.333 21.333v213.333c0 11.776-9.557 21.333-21.333 21.333h-341.333c-1.152 0-2.133-0.469-3.243-0.64-33.707 8.96-188.757 64.256-188.757 320.64 0 38.869 10.496 70.229 29.568 88.32 12.843 12.16 29.781 18.347 50.347 18.347 1.835 0 3.755-0.043 5.632-0.128 78.933-4.181 85.12-82.56 85.12-106.539 0-94.933 69.973-149.333 192-149.333h298.667c148.437 0 148.437 144.512 148.437 192 0 11.776-9.557 21.333-21.333 21.333s-21.333-9.557-21.333-21.333c0-131.243-50.816-149.333-105.771-149.333h-298.667c-99.072 0-149.333 35.883-149.333 106.667v170.667c0 82.347 66.987 149.333 149.333 149.333h286.379c68.139 0 133.504-28.928 179.413-79.36 46.080-50.688 68.779-118.869 62.293-187.093z" />
<glyph unicode="&#xe951;" glyph-name="bowling-pins" d="M637.355 511.872c-36.779 63.403-48.811 138.027-33.877 210.133 4.565 22.229 15.189 75.392 15.189 88.661 0 58.837-47.872 106.667-106.667 106.667s-106.667-47.829-106.667-106.667c0-13.269 10.624-66.432 15.189-88.704 14.891-72.021 2.859-146.688-33.877-210.091-49.493-85.461-66.645-117.717-66.645-172.8-0.085-18.091-0.085-18.091 32.981-159.531 12.373-52.779 29.355-125.653 52.864-227.029 2.261-9.685 10.923-16.512 20.821-16.512h170.667c9.899 0 18.56 6.827 20.779 16.512 23.509 101.376 40.533 174.251 52.864 227.029 33.067 141.44 33.067 141.44 32.981 161.792 0.043 52.821-17.067 85.077-66.603 170.539zM554.837 661.333h-85.675c0 14.208-0.811 28.459-2.645 42.667h90.88c-1.749-14.208-2.56-28.459-2.56-42.667zM466.432 618.667h91.179c1.792-14.379 4.224-28.672 7.851-42.667h-106.837c3.584 13.995 6.016 28.288 7.808 42.667zM512 874.667c35.285 0 64-28.715 64-63.915-0.128-6.101-5.376-35.328-11.093-64.085h-105.813c-5.717 28.757-10.965 57.984-11.093 64 0 35.285 28.715 64 64 64zM629.461 189.269c-11.648-49.92-27.52-117.717-49.067-210.603h-136.747c-21.547 92.885-37.419 160.683-49.067 210.603-31.957 136.576-31.957 136.832-31.915 152.064 0 40.021 11.563 63.957 60.885 149.12 8.021 13.824 14.677 28.203 20.608 42.88h135.723c5.931-14.677 12.587-29.056 20.565-42.88 49.323-85.163 60.885-109.141 60.885-151.552 0.043-12.8 0.043-13.056-31.872-149.632zM88.277 533.333h128.427l19.243-50.304c4.224-11.008 16.512-16.512 27.563-12.288 11.008 4.224 16.512 16.555 12.288 27.563l-24.021 62.592-0.043 0.085c-0.256 0.853-0.341 1.664-0.683 2.432-15.147 43.691-20.053 91.179-14.379 135.339l2.987 11.733c8.533 33.067 16.171 63.957 16.171 78.848 0 58.837-47.872 106.667-106.667 106.667s-106.667-47.829-106.667-106.667c0-14.080 11.691-71.808 15.275-89.088 9.429-46.251 7.851-94.549-3.968-137.771l-49.749-131.029c-5.76-24.704-5.632-50.56 0.043-73.6l60.075-319.104c1.92-10.112 10.752-17.408 20.992-17.408h128c9.984 0 18.645 6.955 20.821 16.725l42.667 192c2.56 11.52-4.693 22.869-16.213 25.472-11.435 2.347-22.912-4.693-25.472-16.213l-38.912-175.317h-93.184l-57.045 302.891c-4.352 17.707-4.395 36.693-1.024 52.139l43.477 114.304zM105.387 618.667h89.515c1.792-14.421 4.608-28.587 8.192-42.667h-103.083c2.645 14.080 4.48 28.331 5.376 42.667zM192.128 661.333h-86.656c-0.896 14.336-2.56 28.544-5.205 42.667h94.379c-1.749-14.165-2.56-28.416-2.517-42.667zM149.163 853.333c35.285 0 64-28.715 64-64 0-6.784-4.181-25.515-8.363-42.667h-112.725c-3.883 20.565-6.827 38.144-6.912 42.667 0 35.285 28.715 64 64 64zM1019.093 434.176l-48.299 126.379c-12.416 45.184-13.995 93.44-4.565 139.605 3.584 17.365 15.275 75.093 15.275 89.173 0 58.837-47.872 106.667-106.667 106.667s-106.667-47.829-106.667-106.667c0-14.891 7.637-45.781 16.171-78.848l2.56-9.429c6.101-46.592 1.195-94.208-13.909-137.6-0.384-0.811-0.512-1.664-0.768-2.517l-23.979-62.72c-4.224-11.008 1.28-23.339 12.288-27.563 11.051-4.224 23.339 1.28 27.563 12.288l19.2 50.389h128.341l42.709-111.573c4.224-18.176 4.139-37.163-0.427-55.979l-56.789-301.781h-93.227l-38.955 175.275c-2.56 11.563-13.995 18.603-25.472 16.213-11.52-2.603-18.731-13.952-16.213-25.472l42.667-192c2.261-9.728 10.923-16.683 20.907-16.683h128c10.24 0 19.072 7.296 20.949 17.365l59.819 317.995c5.973 24.192 6.101 50.005-0.512 77.483zM918.528 661.333h-86.869c0 14.123-0.853 28.331-2.56 42.667h94.635c-2.645-14.080-4.309-28.331-5.205-42.667zM829.056 618.667h89.643c0.896-14.251 2.773-28.459 5.419-42.667h-103.211c3.584 13.995 6.357 28.16 8.149 42.667zM874.837 853.333c35.285 0 64-28.715 64-63.957-0.085-4.565-3.029-22.144-6.912-42.709h-112.725c-4.181 17.152-8.363 35.883-8.363 42.667 0 35.285 28.715 64 64 64z" />
<glyph unicode="&#xe952;" glyph-name="bowling" d="M333.995 548.864l-4.395 7.765c-11.861 20.949-4.992 56.107 0.555 84.395l2.219 11.605c21.888 118.656 13.781 201.899-24.149 247.467-21.205 25.515-50.773 38.4-87.936 38.4-37.12 0-66.688-12.928-87.936-38.4-37.888-45.568-46.037-128.896-24.149-247.723l2.261-11.819c5.504-28.117 12.373-63.104 0.555-83.84l-4.395-7.851c-82.517-145.237-207.232-364.757 30.379-606.635 4.011-4.096 9.472-6.357 15.189-6.357h136.235c5.717 0 11.221 2.304 15.189 6.357 237.653 241.877 112.939 461.397 30.379 606.635zM290.432 660.437l-2.133-11.221c-4.437-22.485-9.429-48.469-7.381-73.344h-121.216c2.005 24.704-2.987 50.517-7.339 72.832l-2.176 11.435c-0.085 0.341-0.128 0.683-0.171 1.067h140.544c-0.043-0.299-0.043-0.555-0.128-0.768zM165.205 872.832c12.928 15.488 30.933 23.040 55.125 23.040s42.24-7.552 55.125-23.040c24.363-29.312 31.659-88.576 21.632-168.96h-153.6c-9.984 80.384-2.688 139.691 21.717 168.96zM279.381-21.461h-118.144c-206.763 216.277-97.493 408.491-17.536 549.248l3.072 5.419h147.029l3.072-5.419c80-140.715 189.269-332.971-17.493-549.248zM646.997 618.539c-84.736 0-165.973-31.232-228.779-87.979-8.747-7.936-9.429-21.419-1.536-30.123 7.893-8.789 21.419-9.387 30.165-1.536 54.912 49.664 125.995 77.013 200.149 77.013 164.693 0 298.667-134.016 298.667-298.667s-133.973-298.667-298.667-298.667c-65.237 0-127.189 20.608-179.2 59.648-9.429 7.125-22.827 5.163-29.867-4.267s-5.163-22.784 4.267-29.824c59.477-44.672 130.261-68.267 204.8-68.267 188.203 0 341.333 153.131 341.333 341.333s-153.131 341.333-341.333 341.333zM604.331 511.872c-35.285 0-64-28.715-64-64s28.715-64 64-64 64 28.715 64 64-28.715 64-64 64zM604.331 426.539c-11.776 0-21.333 9.6-21.333 21.333s9.557 21.333 21.333 21.333 21.333-9.6 21.333-21.333-9.6-21.333-21.333-21.333zM838.997 405.205c0 35.285-28.715 64-64 64s-64-28.715-64-64 28.715-64 64-64 64 28.715 64 64zM753.664 405.205c0 11.733 9.557 21.333 21.333 21.333s21.333-9.6 21.333-21.333-9.557-21.333-21.333-21.333-21.333 9.6-21.333 21.333zM582.997 277.205c0-35.285 28.715-64 64-64s64 28.715 64 64-28.715 64-64 64-64-28.715-64-64zM668.331 277.205c0-11.733-9.557-21.333-21.333-21.333s-21.333 9.6-21.333 21.333 9.557 21.333 21.333 21.333 21.333-9.6 21.333-21.333z" />
<glyph unicode="&#xe953;" glyph-name="basketball-2" d="M1013.973 743.296l-272 170.667c-3.413 2.133-7.296 3.243-11.349 3.243h-431.957c-3.968 0-7.808-1.067-11.179-3.157l-277.333-170.667c-6.357-3.883-10.155-10.752-10.155-18.176v-384c0-8.405 4.949-16.085 12.629-19.499l192-85.333c2.731-1.195 5.717-1.835 8.704-1.835h101.803l26.325-237.056c1.195-10.795 10.325-18.944 21.205-18.944h298.667c10.88 0 20.011 8.149 21.205 18.944l26.325 237.056h106.453c3.029 0 6.059 0.683 8.832 1.92l187.349 85.333c7.595 3.456 12.501 11.051 12.501 19.413v384c0 7.339-3.797 14.165-10.027 18.091zM343.808 362.539h82.859v-85.333h-73.387l-9.472 85.333zM670.677 277.205h-73.344v85.333h82.816l-9.472-85.333zM554.667 277.205h-85.333v85.333h85.333v-85.333zM469.333 149.205v85.333h85.333v-85.333h-85.333zM554.667 106.539v-85.333h-85.333v85.333h85.333zM426.667 234.539v-85.333h-59.136l-9.472 85.333h68.608zM372.267 106.539h54.4v-85.333h-44.928l-9.472 85.333zM597.333 21.205v85.333h54.357l-9.472-85.333h-44.885zM656.427 149.205h-59.093v85.333h68.608l-9.515-85.333zM719.872 398.080c-4.053 4.523-9.813 7.125-15.915 7.125h-384c-6.059 0-11.861-2.603-15.915-7.125-4.053-4.48-5.973-10.539-5.333-16.597l11.563-104.277h-54.272v298.667h512v-298.667h-54.357l11.563 104.277c0.64 6.059-1.28 12.117-5.333 16.597zM981.333 354.901l-170.667-77.696v320c0 11.776-9.557 21.333-21.333 21.333h-554.667c-11.776 0-21.333-9.557-21.333-21.333v-317.995l-170.667 75.861v358.229l262.059 161.237h419.797l256.811-161.109v-358.528z" />
<glyph unicode="&#xe954;" glyph-name="volleyball" d="M512 959.872c-282.325 0-512-229.675-512-512s229.675-512 512-512 512 229.675 512 512-229.717 512-512 512zM413.099-10.752c-64.171 13.824-123.264 40.96-174.763 78.123 189.397 3.627 365.611 113.92 450.176 285.269 35.84-24.192 67.925-53.333 95.872-86.272-66.389-151.381-206.933-256.811-371.285-277.12zM528.896 465.579c-16.384 47.232-24.619 95.488-25.771 143.488 193.195 18.091 382.251-87.125 467.115-261.504-13.909-63.659-40.917-122.368-77.867-173.525-66.901 148.608-202.325 257.963-363.477 291.541zM503.808 651.947c2.987 43.307 12.288 85.803 27.349 126.72 160.939 19.285 321.237-45.995 422.272-172.928 17.749-49.408 27.904-102.4 27.904-157.867 0-10.325-0.896-20.437-1.579-30.635-101.547 158.080-286.635 250.837-475.947 234.709zM889.131 726.059c-97.152 71.040-217.557 105.515-339.456 96.811 14.635 29.824 32.64 58.325 53.845 85.248 116.565-23.168 217.387-89.813 285.611-182.059zM555.904 914.987c-96.597-134.485-121.984-303.061-67.968-461.184-33.749-36.992-71.851-67.285-112.981-91.264-106.667 163.925-99.968 382.080 18.688 538.923 37.888 9.941 77.397 15.744 118.357 15.744 14.805 0 29.397-0.853 43.904-2.219zM328.021 879.573c-97.28-164.736-94.763-374.656 9.088-537.003-38.955-18.005-80.171-30.123-122.965-36.565-95.147 134.912-112.896 309.675-45.355 460.928 44.459 47.829 98.389 86.613 159.232 112.64zM91.307 654.677c-19.072-122.069 7.595-247.765 75.392-353.749-33.536-1.579-67.712 0.427-102.315 5.973-14.080 44.501-21.717 91.861-21.717 140.971 0 74.283 17.792 144.299 48.64 206.805zM81.579 261.248c21.12-2.517 42.112-4.181 62.848-4.181 142.891 0 275.029 58.624 374.315 167.168 47.189-9.685 91.776-26.752 132.992-49.493-84.565-174.805-272.683-281.344-466.944-262.699-43.435 42.283-78.677 92.885-103.211 149.205zM548.139-19.627c115.072 46.72 209.451 134.955 265.344 248.491 19.584-28.544 36.011-59.392 48.939-92.075-78.464-88.32-189.525-146.816-314.283-156.416z" />
<glyph unicode="&#xe955;" glyph-name="soccer" d="M512 959.872c-282.325 0-512-229.675-512-512s229.675-512 512-512 512 229.675 512 512-229.717 512-512 512zM917.333 212.437l-179.115-41.259-66.731 74.496 74.411 229.76 114.645 61.568 118.4-136.235c-6.869-68.181-28.715-131.84-61.611-188.331zM286.933 171.093l-180.437 41.6c-32.683 56.021-54.4 119.168-61.355 186.795l119.808 137.899 111.957-54.699 76.8-237.013-66.773-74.581zM137.557 570.923l-94.165-108.416c2.859 92.715 32.341 178.731 81.621 250.411l12.544-141.995zM393.301 261.888l-73.856 227.883 193.067 140.715 193.109-140.715-73.771-227.883h-238.549zM887.467 571.051l12.459 140.587c48.469-71.040 77.44-156.117 80.597-247.637l-93.056 107.051zM861.355 760.149l-16.128-182.912-107.733-57.899-203.605 148.395v139.221l165.803 70.784c62.123-27.221 117.035-67.712 161.664-117.589zM640.469 898.859l-127.957-54.613-128.299 54.827c40.661 11.563 83.413 18.133 127.787 18.133 44.587 0 87.595-6.613 128.469-18.347zM324.821 878.037l166.357-71.083v-139.221l-198.997-145.067-112.384 54.955-16.213 183.637c44.587 49.536 99.328 89.728 161.237 116.779zM141.525 160.811l139.264-32.085 73.003-122.112c-84.693 30.379-158.037 84.352-212.267 154.197zM413.995-11.008l-93.184 155.904 66.517 74.283h250.496l66.517-74.197-92.843-155.563c-32.128-6.997-65.365-10.88-99.499-10.88-33.621 0-66.389 3.712-98.005 10.453zM671.744 7.168l72.619 121.643 137.899 31.787c-53.845-69.291-126.592-122.923-210.517-153.429z" />
<glyph unicode="&#xe956;" glyph-name="golf" d="M490.667 959.872c-194.091 0-352-157.909-352-352s157.909-352 352-352 352 157.909 352 352-157.952 352-352 352zM490.667 298.539c-170.581 0-309.333 138.752-309.333 309.333s138.752 309.333 309.333 309.333 309.333-138.752 309.333-309.333-138.795-309.333-309.333-309.333zM692.693 249.301c-121.003-75.051-283.051-75.136-404.139-0.043-10.027 6.229-23.168 3.115-29.355-6.869-6.229-10.027-3.115-23.168 6.869-29.355 61.269-38.016 131.2-58.752 203.264-62.336v-194.347c0-11.776 9.557-21.333 21.333-21.333s21.333 9.557 21.333 21.333v194.347c72.064 3.627 142.037 24.363 203.221 62.379 10.027 6.229 13.099 19.371 6.869 29.355s-19.371 13.056-29.397 6.869zM640 703.872c0-23.564-19.103-42.667-42.667-42.667s-42.667 19.103-42.667 42.667c0 23.564 19.103 42.667 42.667 42.667s42.667-19.103 42.667-42.667zM768 661.205c0-23.564-19.103-42.667-42.667-42.667s-42.667 19.103-42.667 42.667c0 23.564 19.103 42.667 42.667 42.667s42.667-19.103 42.667-42.667zM725.333 533.205c0-23.564-19.103-42.667-42.667-42.667s-42.667 19.103-42.667 42.667c0 23.564 19.103 42.667 42.667 42.667s42.667-19.103 42.667-42.667zM640 447.872c0-23.564-19.103-42.667-42.667-42.667s-42.667 19.103-42.667 42.667c0 23.564 19.103 42.667 42.667 42.667s42.667-19.103 42.667-42.667zM512 405.205c0-23.564-19.103-42.667-42.667-42.667s-42.667 19.103-42.667 42.667c0 23.564 19.103 42.667 42.667 42.667s42.667-19.103 42.667-42.667zM597.333 575.872c0-23.564-19.103-42.667-42.667-42.667s-42.667 19.103-42.667 42.667c0 23.564 19.103 42.667 42.667 42.667s42.667-19.103 42.667-42.667zM469.333 533.205c0-23.564-19.103-42.667-42.667-42.667s-42.667 19.103-42.667 42.667c0 23.564 19.103 42.667 42.667 42.667s42.667-19.103 42.667-42.667z" />
<glyph unicode="&#xe957;" glyph-name="football" d="M936.789 815.232c-2.901 30.293-27.093 54.443-57.429 57.472-106.837 10.581-416.341-21.291-600.832-205.739-181.205-181.205-217.984-489.344-206.976-602.069 2.987-30.379 27.136-54.485 57.387-57.472 11.691-1.109 25.813-1.792 41.856-1.792 130.56 0 395.477 43.947 560.299 208.811 182.101 182.101 217.259 483.413 205.696 600.789zM836.651 831.872c14.805 0 27.776-0.597 38.485-1.664 10.112-0.981 18.176-9.003 19.157-19.072 4.693-47.787 0.256-132.693-21.248-227.029l-224.896 224.853c73.259 16.597 140.459 22.912 188.501 22.912zM133.077 49.92c-10.069 0.939-18.091 9.003-19.072 19.115-3.797 39.040-1.493 103.040 11.307 176.683l184.448-184.448c-74.752-12.928-139.051-15.019-176.683-11.349zM700.928 244.565c-94.677-94.677-225.408-146.816-341.035-173.184l-224.469 224.512c26.581 116.139 79.104 246.741 173.227 340.864 81.323 81.323 189.355 130.901 291.499 159.829l260.523-260.437c-29.141-102.699-78.933-210.773-159.744-291.584zM639.957 605.952c-8.32 8.32-21.845 8.32-30.165 0l-30.165-30.165-30.208 30.165c-8.32 8.32-21.845 8.32-30.165 0s-8.32-21.845 0-30.165l30.208-30.165-60.331-60.331-30.208 30.208c-8.32 8.32-21.845 8.32-30.165 0s-8.32-21.845 0-30.165l30.208-30.208-60.373-60.331-30.165 30.165c-8.32 8.32-21.845 8.32-30.165 0s-8.32-21.845 0-30.165l30.165-30.165-30.165-30.165c-8.32-8.32-8.32-21.845 0-30.165 4.181-4.181 9.643-6.229 15.104-6.229s10.923 2.091 15.104 6.229l30.165 30.165 30.165-30.165c4.181-4.181 9.643-6.229 15.104-6.229s10.923 2.091 15.104 6.229c8.32 8.32 8.32 21.845 0 30.165l-30.165 30.165 60.373 60.331 30.165-30.165c4.181-4.181 9.643-6.229 15.104-6.229s10.923 2.091 15.104 6.229c8.32 8.32 8.32 21.845 0 30.165l-30.165 30.165 60.331 60.331 30.165-30.123c4.181-4.181 9.643-6.229 15.104-6.229s10.923 2.091 15.104 6.229c8.32 8.32 8.32 21.845 0 30.165l-30.165 30.123 30.165 30.165c8.149 8.32 8.149 21.845-0.171 30.165z" />
</font>
</defs>
</svg>
